<svg width="110" height="110" viewBox="0 0 110 110" fill="none" xmlns="http://www.w3.org/2000/svg">
<path d="M96.6558 58.2308C96.702 57.6334 96.8916 57.1244 97.2246 56.7038C97.5574 56.286 97.9927 55.9754 98.5307 55.7719C99.0687 55.5684 99.6697 55.4924 100.334 55.5437C101.004 55.5955 101.59 55.7648 102.093 56.0517C102.596 56.3415 102.978 56.7182 103.24 57.1819C103.505 57.6458 103.614 58.1692 103.569 58.7521C103.535 59.1987 103.416 59.5966 103.214 59.9457C103.015 60.295 102.75 60.5749 102.419 60.7856C102.09 60.9995 101.716 61.1208 101.297 61.1497L101.357 60.3666C101.74 60.3146 102.077 60.1437 102.368 59.854C102.662 59.5674 102.827 59.1863 102.864 58.7107C102.896 58.2844 102.81 57.8984 102.603 57.5527C102.399 57.2073 102.099 56.9259 101.701 56.7084C101.306 56.4941 100.839 56.3661 100.3 56.3244C99.7574 56.2825 99.2705 56.3353 98.839 56.4828C98.4103 56.6306 98.066 56.8578 97.806 57.1644C97.5458 57.474 97.3987 57.8477 97.3649 58.2857C97.342 58.5815 97.3763 58.8554 97.4676 59.1076C97.5617 59.3628 97.7053 59.5811 97.8984 59.7623C98.0913 59.9464 98.3276 60.0785 98.6074 60.1584L98.5468 60.9415C98.1482 60.8523 97.7997 60.681 97.5013 60.4274C97.2055 60.177 96.9818 59.8636 96.83 59.4872C96.678 59.1136 96.6199 58.6949 96.6558 58.2308Z" fill="black"/>
<path d="M100.249 64.0935L96.178 63.1058L96.3611 62.351L105.045 64.4581L104.862 65.2129L101.669 64.4381L101.653 64.506C101.952 64.7402 102.163 65.0414 102.286 65.4096C102.409 65.7805 102.41 66.2119 102.291 66.7038C102.184 67.1448 102 67.5101 101.738 67.7997C101.476 68.0894 101.146 68.2846 100.747 68.3855C100.348 68.4863 99.8905 68.4739 99.3732 68.3484L95.1543 67.3247L95.3385 66.5657L99.5108 67.5781C100.048 67.7084 100.507 67.6612 100.888 67.4363C101.271 67.2149 101.523 66.8513 101.646 66.3453C101.731 65.9976 101.732 65.6702 101.651 65.3632C101.57 65.0561 101.41 64.7899 101.171 64.5643C100.935 64.3423 100.627 64.1854 100.249 64.0935Z" fill="black"/>
<path d="M93.5086 71.2274C93.7341 70.6943 94.0688 70.28 94.5128 69.9846C94.9556 69.6918 95.4642 69.5311 96.0385 69.5024C96.6155 69.4748 97.2174 69.5936 97.8443 69.8587C98.4765 70.1262 98.9837 70.4765 99.3658 70.9097C99.7506 71.3441 99.9908 71.8215 100.086 72.342C100.184 72.8664 100.12 73.3951 99.894 73.9282C99.6686 74.4613 99.3344 74.8743 98.8916 75.167C98.4488 75.4598 97.9389 75.62 97.3619 75.6475C96.7837 75.6778 96.1786 75.5592 95.5463 75.2918C94.9194 75.0266 94.4149 74.6774 94.0328 74.2442C93.6534 73.8121 93.4151 73.3339 93.3179 72.8096C93.2196 72.2879 93.2831 71.7605 93.5086 71.2274ZM94.1636 71.5045C93.9823 71.9331 93.944 72.3448 94.0486 72.7396C94.1532 73.1345 94.3648 73.4892 94.6833 73.804C95.0007 74.1214 95.3898 74.3776 95.8506 74.5725C96.3114 74.7674 96.7675 74.8687 97.219 74.8765C97.6694 74.887 98.074 74.7928 98.4328 74.594C98.7917 74.3952 99.0617 74.0815 99.243 73.6529C99.4232 73.2269 99.4602 72.8146 99.3541 72.416C99.2468 72.02 99.0331 71.6628 98.713 71.3442C98.3918 71.0283 98.0008 70.773 97.5401 70.5781C97.0793 70.3832 96.625 70.281 96.1773 70.2717C95.7285 70.2651 95.326 70.3617 94.9698 70.5616C94.6137 70.7615 94.3449 71.0758 94.1636 71.5045Z" fill="black"/>
<path d="M90.3903 77.2039C90.6992 76.7144 91.0967 76.3599 91.5827 76.1403C92.0671 75.9232 92.595 75.847 93.1663 75.9118C93.7402 75.9782 94.3149 76.193 94.8905 76.5563C95.471 76.9227 95.9147 77.3506 96.2215 77.84C96.5307 78.331 96.6904 78.8411 96.7004 79.3702C96.7113 79.9034 96.5623 80.4147 96.2533 80.9042C95.9444 81.3937 95.5477 81.747 95.0633 81.9641C94.5789 82.1812 94.0498 82.2566 93.4759 82.1903C92.9005 82.1264 92.3226 81.9113 91.7421 81.5449C91.1665 81.1816 90.7253 80.7552 90.4185 80.2658C90.1141 79.7779 89.9565 79.2674 89.9456 78.7342C89.9331 78.2035 90.0813 77.6934 90.3903 77.2039ZM90.9917 77.5835C90.7433 77.9771 90.6387 78.3771 90.678 78.7837C90.7172 79.1902 90.8684 79.5746 91.1317 79.9368C91.3934 80.3015 91.7358 80.6174 92.1589 80.8844C92.582 81.1514 93.0157 81.3254 93.4599 81.4063C93.9027 81.4896 94.3172 81.4623 94.7035 81.3243C95.0898 81.1863 95.4072 80.9206 95.6556 80.527C95.9024 80.1359 96.0058 79.735 95.9657 79.3244C95.924 78.9163 95.7711 78.5292 95.5069 78.1629C95.2412 77.7992 94.8967 77.4838 94.4736 77.2167C94.0506 76.9497 93.6189 76.7753 93.1786 76.6935C92.7368 76.6142 92.324 76.6443 91.9401 76.7838C91.5562 76.9234 91.2401 77.1899 90.9917 77.5835Z" fill="black"/>
<path d="M89.1863 87.5377L89.4995 86.8684C89.697 86.9468 89.8992 86.9909 90.1061 87.0006C90.3131 87.0102 90.5204 86.9683 90.728 86.8748C90.9338 86.7836 91.1356 86.6235 91.3334 86.3946C91.6301 86.0513 91.7921 85.6992 91.8195 85.3384C91.8468 84.9775 91.7318 84.6859 91.4743 84.4633C91.2564 84.275 91.0146 84.1967 90.7488 84.2285C90.4833 84.2643 90.1749 84.4053 89.8237 84.6516L88.9737 85.2548C88.5031 85.5902 88.0643 85.7665 87.6573 85.7838C87.2483 85.8032 86.8743 85.6665 86.5354 85.3736C86.2493 85.1263 86.0636 84.8274 85.9783 84.4769C85.8929 84.1263 85.9091 83.7539 86.0268 83.3597C86.1448 82.9696 86.3646 82.5886 86.686 82.2166C87.114 81.7215 87.5779 81.4093 88.0779 81.2801C88.5801 81.1527 89.0814 81.2266 89.582 81.5015L89.2327 82.1859C88.8685 81.9979 88.518 81.943 88.1814 82.0211C87.8428 82.1015 87.5233 82.3155 87.2228 82.6632C86.8861 83.0528 86.7039 83.4393 86.6761 83.8228C86.6506 84.2083 86.7699 84.5151 87.034 84.7434C87.2386 84.9202 87.4693 85.0004 87.7258 84.9838C87.9846 84.969 88.2668 84.8516 88.5725 84.6313L89.4867 83.9739C89.9727 83.6251 90.4215 83.4439 90.833 83.4304C91.2444 83.417 91.6196 83.5567 91.9585 83.8496C92.238 84.0911 92.4178 84.3791 92.4979 84.7136C92.5801 85.0499 92.5667 85.4036 92.4576 85.7745C92.3485 86.1454 92.1465 86.5014 91.8517 86.8425C91.4504 87.3069 91.0242 87.5864 90.5733 87.6811C90.1227 87.7799 89.6603 87.7321 89.1863 87.5377Z" fill="black"/>
<path d="M82.0445 86.8278C82.5206 86.4224 83.0268 86.1823 83.5631 86.1077C84.1013 86.0352 84.6335 86.115 85.1596 86.347C85.6854 86.5831 86.1681 86.9592 86.6075 87.4752C87.045 87.989 87.3394 88.5253 87.4906 89.0842C87.6415 89.6473 87.646 90.1841 87.5039 90.6948C87.3616 91.2095 87.0701 91.6546 86.6294 92.0299C86.3525 92.2656 86.0423 92.4419 85.6987 92.5588C85.3569 92.6779 84.9955 92.7202 84.6145 92.6855C84.2332 92.655 83.8488 92.5334 83.4614 92.3207C83.0759 92.1103 82.7011 91.7914 82.3372 91.364L82.0882 91.0717L86.0744 87.677L86.5186 88.1985L83.1369 91.0783C83.416 91.4061 83.7333 91.6441 84.0887 91.7922C84.4438 91.9445 84.8038 91.9971 85.1687 91.9499C85.5313 91.9047 85.8655 91.752 86.1711 91.4917C86.4944 91.2164 86.7054 90.8877 86.8041 90.5056C86.9028 90.1235 86.9013 89.7313 86.7994 89.3291C86.6953 88.9287 86.501 88.5592 86.2165 88.2207L85.9506 87.9085C85.6055 87.5032 85.234 87.2083 84.8361 87.0237C84.4379 86.8432 84.0385 86.7803 83.6379 86.8348C83.2374 86.8894 82.86 87.0676 82.5056 87.3693C82.2642 87.5749 82.0848 87.7926 81.9673 88.0226C81.8477 88.2544 81.7795 88.4862 81.763 88.7181C81.7462 88.954 81.7707 89.1757 81.8366 89.3832L81.1196 89.6786C81.0142 89.3978 80.9728 89.0912 80.9953 88.7587C81.0156 88.4281 81.1104 88.0952 81.2796 87.7601C81.4485 87.429 81.7035 87.1183 82.0445 86.8278Z" fill="black"/>
<path d="M74.7405 91.8008C75.1002 91.6161 75.4646 91.5171 75.834 91.504C76.2046 91.4935 76.5464 91.5763 76.8592 91.7524C77.1734 91.9311 77.4288 92.2119 77.6255 92.5949C77.777 92.8898 77.849 93.1668 77.8414 93.4258C77.8338 93.6847 77.761 93.9314 77.623 94.1658C77.4851 94.4001 77.2957 94.6266 77.0548 94.8452C76.8139 95.0638 76.5359 95.2801 76.2208 95.4943C75.9083 95.7071 75.6448 95.8882 75.4305 96.0376C75.2136 96.1882 75.0616 96.3284 74.9746 96.4582C74.8875 96.5879 74.8825 96.7278 74.9596 96.8779L75.0314 97.0176C75.24 97.4238 75.5258 97.6809 75.8886 97.7888C76.2502 97.9007 76.6574 97.8403 77.1102 97.6077C77.5397 97.3871 77.8418 97.1126 78.0164 96.7842C78.1885 96.4571 78.2631 96.1375 78.2402 95.8256L79.0177 95.7254C79.0506 96.1205 78.9979 96.4762 78.8595 96.7926C78.7225 97.1115 78.5284 97.3894 78.2773 97.6263C78.0275 97.8658 77.7513 98.0633 77.4485 98.2188C77.2209 98.3357 76.9688 98.4276 76.6924 98.4943C76.4135 98.5624 76.13 98.5772 75.8421 98.5387C75.5555 98.5028 75.2791 98.388 75.0129 98.1945C74.7481 98.0035 74.5133 97.7088 74.3086 97.3104L72.2293 93.2624L72.9202 92.9075L73.4046 93.8506L73.4473 93.8287C73.4397 93.6102 73.4749 93.3763 73.5529 93.127C73.6308 92.8777 73.7654 92.6368 73.9567 92.4045C74.1481 92.1721 74.4093 91.9709 74.7405 91.8008ZM74.9723 92.4813C74.6049 92.67 74.3285 92.915 74.1431 93.2162C73.9578 93.5174 73.8618 93.8398 73.8551 94.1833C73.8472 94.5307 73.9269 94.8675 74.0944 95.1935L74.537 96.0551C74.5635 95.9793 74.6275 95.8908 74.7292 95.7896C74.8283 95.6896 74.9488 95.5836 75.0907 95.4715C75.2313 95.3633 75.3739 95.2589 75.5185 95.1585C75.6631 95.058 75.7936 94.9682 75.9098 94.8888C76.2249 94.6747 76.4789 94.4625 76.6717 94.2522C76.8646 94.042 76.9845 93.8267 77.0315 93.6063C77.0799 93.3885 77.0423 93.1593 76.9187 92.9187C76.7326 92.5564 76.4591 92.3422 76.098 92.2758C75.7382 92.2121 75.363 92.2806 74.9723 92.4813Z" fill="black"/>
<path d="M65.0278 95.5386C65.6095 95.3951 66.1523 95.4155 66.6562 95.5998C67.1572 95.7848 67.5887 96.1008 67.9506 96.5478C68.3125 96.9948 68.5733 97.5417 68.7328 98.1884C68.8937 98.8408 68.9169 99.4507 68.8022 100.018C68.6847 100.587 68.4469 101.068 68.0887 101.462C67.7312 101.858 67.2686 102.127 66.7009 102.267C66.266 102.374 65.8512 102.387 65.4563 102.304C65.0622 102.225 64.7132 102.061 64.4092 101.812C64.103 101.567 63.8705 101.25 63.7116 100.861L64.4741 100.673C64.6437 101.02 64.9117 101.287 65.278 101.472C65.6421 101.661 66.0558 101.698 66.5189 101.584C66.9341 101.481 67.2734 101.278 67.5368 100.973C67.8008 100.671 67.9738 100.298 68.0556 99.8519C68.1353 99.4098 68.1104 98.9262 67.9808 98.4009C67.8505 97.8727 67.6477 97.427 67.3723 97.0635C67.0975 96.7028 66.7738 96.4471 66.4011 96.2964C66.0255 96.1464 65.6245 96.1239 65.1981 96.2291C64.91 96.3002 64.6606 96.4186 64.4499 96.5845C64.237 96.7538 64.0748 96.9586 63.9633 97.1988C63.8489 97.4398 63.7977 97.7056 63.8094 97.9963L63.0469 98.1844C63.0066 97.7779 63.06 97.3932 63.2072 97.0303C63.3522 96.671 63.5796 96.3602 63.8895 96.098C64.1965 95.8366 64.5759 95.6501 65.0278 95.5386Z" fill="black"/>
<path d="M58.4221 96.6056C58.9991 96.5587 59.5212 96.6637 59.9886 96.9205C60.453 97.1776 60.8309 97.554 61.1221 98.0499C61.4136 98.5486 61.5868 99.1372 61.6419 99.8156C61.6975 100.5 61.6216 101.112 61.4144 101.651C61.2074 102.193 60.8954 102.627 60.4782 102.952C60.0584 103.281 59.56 103.469 58.9831 103.516C58.4061 103.563 57.8854 103.458 57.421 103.201C56.9565 102.944 56.5785 102.566 56.2871 102.067C55.9927 101.568 55.8178 100.977 55.7622 100.293C55.7072 99.6144 55.7832 99.0056 55.9904 98.4664C56.1979 97.9301 56.5115 97.4975 56.9313 97.1687C57.3482 96.8401 57.8452 96.6524 58.4221 96.6056ZM58.4797 97.3144C58.0158 97.3521 57.6331 97.5086 57.3315 97.7841C57.0299 98.0596 56.8133 98.4113 56.6817 98.8393C56.5472 99.2675 56.5002 99.731 56.5407 100.23C56.5812 100.728 56.7024 101.18 56.9045 101.583C57.1036 101.988 57.3743 102.303 57.7166 102.529C58.0589 102.755 58.462 102.849 58.9259 102.811C59.3869 102.774 59.7695 102.616 60.0737 102.337C60.3751 102.059 60.5929 101.704 60.7271 101.273C60.8585 100.842 60.9039 100.377 60.8635 99.8788C60.823 99.3801 60.7033 98.9302 60.5044 98.529C60.3026 98.1281 60.0306 97.816 59.6886 97.5928C59.3465 97.3695 58.9435 97.2768 58.4797 97.3144Z" fill="black"/>
<path d="M49.6806 99.155L49.3456 103.282L48.5715 103.219L49.1138 96.5393L49.8879 96.6022L49.7978 97.7111L49.8587 97.7161C50.0431 97.3867 50.3141 97.1212 50.6719 96.9197C51.0295 96.7211 51.4533 96.6417 51.9433 96.6815C52.3694 96.7161 52.7403 96.8396 53.0557 97.0519C53.3709 97.2672 53.6081 97.5637 53.7671 97.9414C53.9261 98.3191 53.9842 98.7718 53.9414 99.2995L53.5901 103.627L52.816 103.564L53.1634 99.2845C53.2058 98.7626 53.0862 98.3297 52.8048 97.9859C52.5231 97.6449 52.1417 97.4549 51.6604 97.4158C51.3589 97.3913 51.0631 97.4403 50.773 97.5627C50.4829 97.685 50.2366 97.8781 50.0343 98.1418C49.8317 98.4085 49.7138 98.7462 49.6806 99.155Z" fill="black"/>
<path d="M47.3397 96.1964L45.9086 102.744L45.1712 102.583L45.3911 101.577L45.3357 101.564C45.1329 101.866 44.8475 102.082 44.4794 102.212C44.1079 102.346 43.7161 102.367 43.3041 102.277C43.2416 102.263 43.1723 102.247 43.0962 102.227C43.0201 102.208 42.9567 102.191 42.9062 102.177L43.0749 101.405C43.1077 101.418 43.1655 101.44 43.2483 101.47C43.3311 101.5 43.4222 101.526 43.5216 101.548C43.8626 101.622 44.1825 101.616 44.4813 101.53C44.7767 101.445 45.0287 101.293 45.2374 101.074C45.4462 100.855 45.5859 100.583 45.6567 100.259L46.581 96.0306L47.3397 96.1964Z" fill="black"/>
<path d="M37.0526 98.6231L37.79 98.6712C37.7888 98.8837 37.8214 99.0881 37.8877 99.2843C37.954 99.4806 38.0685 99.6584 38.2311 99.8178C38.391 99.9762 38.6136 100.106 38.8988 100.207C39.3265 100.358 39.7134 100.381 40.0595 100.275C40.4055 100.169 40.6353 99.956 40.7489 99.6351C40.8449 99.3637 40.8298 99.1099 40.7035 98.8739C40.5735 98.6397 40.33 98.4038 39.9728 98.1663L39.1015 97.5941C38.6179 97.2779 38.294 96.9334 38.1297 96.5605C37.9627 96.1867 37.954 95.7886 38.1034 95.3663C38.2296 95.0099 38.4404 94.7281 38.7359 94.521C39.0313 94.314 39.3841 94.1935 39.7941 94.1597C40.2004 94.1276 40.6353 94.1936 41.0987 94.3576C41.7157 94.576 42.1753 94.8945 42.4776 95.3131C42.779 95.7345 42.8927 96.2283 42.8188 96.7946L42.0543 96.7184C42.0968 96.3107 42.0203 95.9643 41.825 95.6792C41.627 95.3931 41.3113 95.1734 40.8781 95.0201C40.3927 94.8483 39.9664 94.8192 39.5991 94.933C39.2307 95.0495 38.9884 95.2723 38.8719 95.6013C38.7816 95.8563 38.7909 96.1003 38.8998 96.3332C39.0077 96.5689 39.2198 96.789 39.5362 96.9936L40.4813 97.6058C40.9831 97.9315 41.3152 98.2835 41.4775 98.6619C41.6398 99.0402 41.6462 99.4405 41.4968 99.8628C41.3735 100.211 41.1707 100.483 40.8883 100.68C40.6049 100.879 40.2707 100.995 39.8855 101.028C39.5003 101.062 39.0952 101.003 38.6702 100.853C38.0916 100.648 37.6762 100.353 37.4238 99.9671C37.1678 99.5834 37.044 99.1354 37.0526 98.6231Z" fill="black"/>
<path d="M35.1562 91.7118C35.7071 92.0078 36.1149 92.3919 36.3795 92.8643C36.6428 93.3393 36.762 93.864 36.7374 94.4385C36.7087 95.0142 36.534 95.6005 36.2133 96.1976C35.8939 96.792 35.5014 97.2614 35.0358 97.6056C34.5662 97.951 34.0678 98.1504 33.5404 98.2039C33.0092 98.2586 32.4886 98.1489 31.9787 97.875C31.6584 97.7029 31.3812 97.4781 31.1473 97.2005C30.9121 96.9255 30.7412 96.6042 30.6349 96.2367C30.5246 95.8704 30.4981 95.4681 30.5552 95.0299C30.6109 94.5943 30.7717 94.1292 31.0374 93.6346L31.2191 93.2964L35.8314 95.7744L35.5072 96.3779L31.5944 94.2757C31.3906 94.6549 31.2844 95.037 31.2757 95.422C31.2631 95.8081 31.3451 96.1626 31.5217 96.4853C31.6957 96.8067 31.9596 97.0623 32.3132 97.2523C32.6873 97.4533 33.0702 97.5303 33.4621 97.4832C33.8539 97.4362 34.2186 97.292 34.5562 97.0508C34.8913 96.8081 35.1648 96.4928 35.3766 96.1047L35.5707 95.7434C35.8226 95.2744 35.9622 94.8211 35.9894 94.3833C36.0126 93.9467 35.9259 93.5518 35.7294 93.1986C35.5328 92.8453 35.2296 92.5585 34.8196 92.3383C34.5403 92.1882 34.2722 92.1003 34.0153 92.0745C33.7558 92.0474 33.5151 92.0683 33.2931 92.1373C33.0672 92.2074 32.8696 92.3109 32.7003 92.4478L32.1643 91.8874C32.3875 91.6871 32.6581 91.5369 32.9759 91.4369C33.2913 91.3355 33.6358 91.3027 34.0096 91.3384C34.3794 91.3753 34.7616 91.4998 35.1562 91.7118Z" fill="black"/>
<path d="M27.3167 86.2072C27.7643 86.6055 28.0547 87.0646 28.188 87.5843C28.3191 88.102 28.3028 88.6366 28.1392 89.188C27.9756 89.7393 27.6723 90.2638 27.2295 90.7614C26.7828 91.2634 26.293 91.6277 25.7602 91.8544C25.2253 92.0792 24.694 92.1555 24.1665 92.0832C23.637 92.0131 23.1539 91.7836 22.7172 91.3949C22.3826 91.0971 22.1375 90.7622 21.9819 90.3901C21.8244 90.0201 21.762 89.6395 21.7949 89.2482C21.8236 88.8571 21.9535 88.4859 22.1844 88.1346L22.771 88.6567C22.5805 88.9934 22.5125 89.3651 22.5671 89.7719C22.6176 90.179 22.821 90.5411 23.1773 90.8582C23.4967 91.1425 23.8566 91.307 24.2568 91.3517C24.6551 91.3985 25.0611 91.3296 25.4748 91.1448C25.8843 90.9602 26.269 90.6659 26.6287 90.2617C26.9903 89.8554 27.243 89.4359 27.3867 89.0031C27.5285 88.5724 27.5561 88.1608 27.4694 87.7682C27.3805 87.3737 27.172 87.0305 26.8439 86.7384C26.6222 86.5412 26.3834 86.4026 26.1274 86.3228C25.8673 86.2431 25.6067 86.2253 25.3455 86.2694C25.0822 86.3115 24.834 86.4197 24.601 86.594L24.0144 86.0718C24.3266 85.8085 24.674 85.6348 25.0564 85.5507C25.4348 85.4669 25.8197 85.4784 26.2112 85.5854C26.6005 85.6905 26.969 85.8978 27.3167 86.2072Z" fill="black"/>
<path d="M20.4844 85.5282L23.7319 82.8827L24.2225 83.4848L17.2944 89.1285L16.8039 88.5264L19.3512 86.4513L19.3071 86.3972C18.9395 86.4941 18.5719 86.4803 18.2041 86.3559C17.8346 86.2292 17.49 85.9697 17.1703 85.5773C16.8837 85.2255 16.7042 84.8577 16.6318 84.474C16.5593 84.0903 16.6034 83.7092 16.7641 83.3307C16.9247 82.9523 17.2114 82.5949 17.6241 82.2587L20.99 79.5168L21.4833 80.1223L18.1546 82.8339C17.7261 83.183 17.4863 83.5772 17.4352 84.0165C17.38 84.4553 17.5169 84.8766 17.8457 85.2803C18.0717 85.5577 18.3315 85.7569 18.6251 85.8779C18.9188 85.9988 19.2275 86.0324 19.5514 85.9787C19.8712 85.9245 20.1822 85.7744 20.4844 85.5282Z" fill="black"/>
<path d="M18.9049 75.9125C19.1956 76.4131 19.3257 76.9295 19.2952 77.4619C19.2632 77.9918 19.0862 78.4949 18.7642 78.9713C18.4396 79.4491 17.983 79.859 17.3944 80.2008C16.8008 80.5456 16.2161 80.7406 15.6402 80.7858C15.0618 80.8325 14.5358 80.7377 14.0622 80.5015C13.5846 80.2642 13.2005 79.8953 12.9097 79.3948C12.619 78.8943 12.4896 78.379 12.5216 77.8492C12.5536 77.3193 12.7318 76.8154 13.0564 76.3376C13.3795 75.8573 13.8379 75.4447 14.4315 75.0999C15.0201 74.758 15.6023 74.5645 16.1782 74.5193C16.7516 74.4755 17.277 74.5723 17.7546 74.8096C18.2307 75.0443 18.6141 75.412 18.9049 75.9125ZM18.2899 76.2697C18.0561 75.8673 17.75 75.5893 17.3715 75.4357C16.993 75.2822 16.5823 75.2382 16.1394 75.3037C15.6949 75.3668 15.2564 75.5239 14.8238 75.7752C14.3912 76.0265 14.0361 76.3303 13.7587 76.6866C13.4797 77.0403 13.312 77.4204 13.2553 77.8267C13.1986 78.233 13.2872 78.6373 13.5209 79.0398C13.7532 79.4397 14.0606 79.717 14.4431 79.8716C14.8241 80.0237 15.238 80.0675 15.685 80.003C16.1305 79.9359 16.5695 79.7768 17.0021 79.5255C17.4348 79.2742 17.7893 78.9724 18.0657 78.6201C18.3406 78.2653 18.5052 77.8855 18.5593 77.4807C18.6135 77.0758 18.5237 76.6722 18.2899 76.2697Z" fill="black"/>
<path d="M16.0094 69.8389C16.2147 70.3801 16.259 70.9109 16.1423 71.4312C16.0245 71.9488 15.7679 72.4164 15.3726 72.834C14.9746 73.2526 14.4574 73.5827 13.821 73.8242C13.1792 74.0678 12.5705 74.165 11.995 74.1159C11.4167 74.0678 10.9131 73.8886 10.4843 73.5785C10.0517 73.2666 9.73273 72.8401 9.52734 72.2989C9.32195 71.7577 9.27816 71.2283 9.39595 70.7107C9.51375 70.1931 9.77167 69.725 10.1697 69.3064C10.5667 68.885 11.0861 68.5526 11.7279 68.309C12.3643 68.0675 12.9703 67.9713 13.5458 68.0204C14.1187 68.0706 14.6214 68.2516 15.0539 68.5635C15.4855 68.8726 15.804 69.2978 16.0094 69.8389ZM15.3444 70.0913C15.1793 69.6562 14.9225 69.332 14.5741 69.1189C14.2256 68.9058 13.8275 68.7956 13.3798 68.7881C12.9311 68.778 12.4728 68.8617 12.005 69.0392C11.5373 69.2167 11.1375 69.4587 10.8058 69.765C10.473 70.0686 10.2456 70.4163 10.1235 70.8079C10.0015 71.1996 10.0231 71.613 10.1882 72.0481C10.3523 72.4805 10.6104 72.8041 10.9626 73.0189C11.3138 73.231 11.7151 73.3416 12.1666 73.3507C12.617 73.3571 13.0761 73.2715 13.5439 73.094C14.0116 72.9165 14.4106 72.6764 14.7406 72.3738C15.0697 72.0685 15.2938 71.7205 15.4131 71.3299C15.5325 70.9393 15.5096 70.5264 15.3444 70.0913Z" fill="black"/>
<path d="M8.49727 62.7017L8.84273 63.355C8.66113 63.4653 8.50413 63.6002 8.37172 63.7595C8.2393 63.9188 8.14784 64.1095 8.09731 64.3316C8.04618 64.5508 8.05235 64.8083 8.11582 65.1041C8.21103 65.5477 8.39438 65.8892 8.66587 66.1284C8.93736 66.3677 9.23948 66.4516 9.57223 66.3802C9.85379 66.3198 10.062 66.174 10.1968 65.9427C10.3282 65.7092 10.4014 65.3782 10.4166 64.9495L10.4473 63.9076C10.4632 63.33 10.5869 62.8736 10.8184 62.5383C11.0493 62.2002 11.3837 61.9841 11.8217 61.8901C12.1915 61.8108 12.5419 61.8427 12.8731 61.9858C13.2043 62.129 13.4917 62.3663 13.7354 62.6978C13.9756 63.027 14.1473 63.432 14.2505 63.9126C14.3878 64.5525 14.3574 65.1109 14.1592 65.5878C13.9582 66.0653 13.5972 66.4209 13.0762 66.6547L12.7405 65.9636C13.11 65.7862 13.365 65.5395 13.5055 65.2238C13.6453 64.9052 13.6671 64.5212 13.5706 64.0719C13.4626 63.5685 13.2639 63.1901 12.9746 62.9369C12.6823 62.6842 12.3656 62.5945 12.0243 62.6678C11.7598 62.7245 11.5569 62.8603 11.4156 63.0751C11.2714 63.2905 11.1951 63.5865 11.1866 63.9632L11.1605 65.0889C11.146 65.687 11.0202 66.1543 10.783 66.4908C10.5458 66.8273 10.2082 67.0425 9.77023 67.1365C9.40903 67.214 9.07087 67.1839 8.75573 67.0463C8.43774 66.9092 8.16362 66.6854 7.93335 66.3749C7.70308 66.0643 7.54065 65.6886 7.44605 65.2478C7.31728 64.6477 7.35095 64.1392 7.54709 63.7222C7.73976 63.3031 8.05649 62.9629 8.49727 62.7017Z" fill="black"/>
<path d="M13.3645 57.4041C13.4006 58.0284 13.2867 58.577 13.0228 59.0497C12.7559 59.5226 12.3712 59.8989 11.8688 60.1786C11.3633 60.4555 10.7722 60.6136 10.0956 60.6528C9.42193 60.6919 8.81657 60.6031 8.27956 60.3866C7.73948 60.1673 7.30864 59.847 6.98703 59.4256C6.66235 59.0016 6.48327 58.5006 6.44979 57.9227C6.42875 57.5597 6.47527 57.2059 6.58933 56.8613C6.70049 56.5169 6.88481 56.2032 7.1423 55.9202C7.39672 55.6345 7.72556 55.4013 8.12883 55.2206C8.5292 55.0401 9.00961 54.9336 9.57007 54.9011L9.95339 54.8789L10.2563 60.1059L9.57238 60.1456L9.31545 55.7113C8.88567 55.7362 8.50449 55.8457 8.17193 56.0398C7.83629 56.2311 7.5772 56.4865 7.39466 56.8059C7.21196 57.1225 7.13222 57.4811 7.15544 57.8818C7.18 58.3058 7.31488 58.6724 7.56006 58.9816C7.80524 59.2908 8.11899 59.5261 8.50129 59.6875C8.88342 59.8461 9.29527 59.914 9.73684 59.8913L10.1463 59.8676C10.6777 59.8368 11.137 59.7184 11.5243 59.5124C11.9084 59.3037 12.1996 59.0231 12.3977 58.6707C12.5958 58.3183 12.6814 57.9098 12.6545 57.4452C12.6361 57.1287 12.5707 56.8542 12.4582 56.6218C12.3455 56.3865 12.2016 56.1923 12.0267 56.0393C11.8487 55.8836 11.657 55.7694 11.4518 55.6968L11.6487 54.9467C11.9363 55.0321 12.2059 55.184 12.4574 55.4025C12.7088 55.6181 12.9172 55.8945 13.0824 56.2316C13.2445 56.5661 13.3386 56.9569 13.3645 57.4041Z" fill="black"/>
<path d="M13.8245 48.3763C13.7533 48.7743 13.611 49.1241 13.3975 49.4257C13.1811 49.7269 12.908 49.9484 12.5783 50.0903C12.2456 50.2318 11.8674 50.2646 11.4437 50.1888C11.1172 50.1304 10.8534 50.0197 10.6521 49.8566C10.4507 49.6935 10.2987 49.4861 10.196 49.2343C10.0933 48.9825 10.0281 48.6945 10.0004 48.3704C9.97266 48.0463 9.96918 47.6941 9.98995 47.3136C10.0102 46.9361 10.0259 46.6168 10.0372 46.3558C10.0489 46.092 10.0296 45.8861 9.97921 45.7382C9.92884 45.5903 9.82061 45.5015 9.65454 45.4718L9.49992 45.4441C9.05037 45.3637 8.67268 45.4351 8.36683 45.6581C8.05864 45.8778 7.85972 46.2382 7.77009 46.7393C7.68507 47.2146 7.72018 47.6213 7.87543 47.9593C8.03119 48.2945 8.24005 48.5475 8.50201 48.7185L8.11018 49.3975C7.77603 49.1841 7.52514 48.9264 7.35751 48.6246C7.18701 48.3223 7.08371 47.9994 7.04761 47.6561C7.00864 47.3123 7.01912 46.9728 7.07905 46.6378C7.12412 46.3858 7.20391 46.1297 7.31842 45.8695C7.43345 45.6064 7.59357 45.3721 7.79878 45.1665C8.00112 44.9603 8.25995 44.8101 8.57527 44.7158C8.88773 44.621 9.26443 44.613 9.70539 44.6919L14.1851 45.4932L14.0483 46.2577L13.0047 46.071L12.9962 46.1183C13.1745 46.2447 13.3392 46.4146 13.4902 46.6277C13.6412 46.8409 13.751 47.094 13.8198 47.387C13.8885 47.68 13.8901 48.0098 13.8245 48.3763ZM13.1429 48.148C13.2156 47.7414 13.1884 47.3731 13.0613 47.043C12.9342 46.713 12.736 46.4411 12.4669 46.2275C12.1955 46.0105 11.8794 45.8698 11.5186 45.8052L10.5651 45.6347C10.6092 45.7017 10.6408 45.8063 10.6596 45.9486C10.679 46.088 10.6903 46.2481 10.6934 46.4289C10.6942 46.6063 10.6906 46.783 10.6828 46.9589C10.675 47.1348 10.6674 47.293 10.66 47.4335C10.6392 47.8139 10.6539 48.1446 10.7042 48.4254C10.7544 48.7062 10.8529 48.9322 10.9996 49.1032C11.1434 49.2737 11.3485 49.3828 11.6148 49.4304C12.0156 49.5021 12.3519 49.4145 12.6236 49.1676C12.8925 48.9202 13.0655 48.5804 13.1429 48.148Z" fill="black"/>
<path d="M16.6558 38.5631C16.4183 39.1132 16.0737 39.5332 15.6223 39.823C15.1719 40.1101 14.6593 40.2627 14.0845 40.2806C13.5096 40.2985 12.9164 40.1754 12.3048 39.9114C11.6879 39.645 11.1882 39.2945 10.8055 38.86C10.424 38.4228 10.1847 37.9424 10.0875 37.4189C9.98775 36.8942 10.0537 36.3635 10.2855 35.8267C10.4631 35.4155 10.7041 35.0775 11.0084 34.8129C11.3101 34.5471 11.6519 34.3683 12.0337 34.2766C12.414 34.181 12.8072 34.1876 13.2133 34.2964L12.9019 35.0174C12.5225 34.9423 12.1482 34.9946 11.7792 35.1742C11.4086 35.35 11.1287 35.6569 10.9396 36.0949C10.7701 36.4875 10.727 36.8807 10.8104 37.2748C10.8911 37.6676 11.0841 38.0314 11.3895 38.366C11.6934 38.6968 12.0937 38.9695 12.5904 39.184C13.0898 39.3996 13.5675 39.5076 14.0235 39.5081C14.4769 39.5074 14.8763 39.4043 15.2218 39.1986C15.5684 38.9902 15.8287 38.6844 16.0029 38.2812C16.1205 38.0088 16.177 37.7385 16.1724 37.4704C16.1662 37.1984 16.1012 36.9454 15.9773 36.7113C15.8546 36.4745 15.6739 36.273 15.4353 36.1065L15.7466 35.3855C16.0948 35.5992 16.3688 35.8744 16.5688 36.211C16.7673 36.5439 16.8772 36.9129 16.8987 37.3182C16.9212 37.7209 16.8403 38.1358 16.6558 38.5631Z" fill="black"/>
<path d="M19.8216 32.5794C19.5091 33.0666 19.1091 33.4182 18.6215 33.6342C18.1355 33.8477 17.6071 33.92 17.0362 33.851C16.4629 33.7805 15.8897 33.5615 15.3168 33.194C14.739 32.8233 14.2985 32.3922 13.9953 31.9005C13.6896 31.4072 13.5337 30.896 13.5276 30.3668C13.5206 29.8336 13.6734 29.3234 13.9859 28.8361C14.2984 28.3489 14.6977 27.9985 15.1837 27.785C15.6697 27.5714 16.1993 27.4999 16.7727 27.5705C17.3476 27.6386 17.9239 27.858 18.5017 28.2286C19.0747 28.5961 19.5127 29.0257 19.8159 29.5174C20.1167 30.0075 20.2706 30.5192 20.2776 31.0524C20.2861 31.5832 20.1342 32.0922 19.8216 32.5794ZM19.223 32.1954C19.4743 31.8037 19.5818 31.4044 19.5456 30.9975C19.5093 30.5907 19.3609 30.2052 19.1003 29.8411C18.8413 29.4745 18.5012 29.1561 18.0801 28.886C17.6589 28.6159 17.2266 28.4388 16.7829 28.3546C16.3408 28.268 15.9261 28.2923 15.5388 28.4274C15.1514 28.5626 14.8321 28.826 14.5808 29.2178C14.3311 29.6071 14.2248 30.0071 14.262 30.418C14.3006 30.8264 14.4507 31.2147 14.7122 31.5828C14.9753 31.9485 15.3174 32.2664 15.7385 32.5366C16.1596 32.8067 16.59 32.9843 17.0296 33.0693C17.4708 33.1519 17.8839 33.1248 18.2688 32.9881C18.6537 32.8514 18.9717 32.5871 19.223 32.1954Z" fill="black"/>
<path d="M22.9764 24.1835L19.8934 21.4194L20.4118 20.8412L25.4019 25.3149L24.8834 25.8931L24.055 25.1504L24.0142 25.1959C24.1649 25.542 24.2123 25.9184 24.1562 26.3252C24.0979 26.7301 23.9047 27.1155 23.5766 27.4816C23.2912 27.7999 22.9685 28.0204 22.6085 28.1431C22.2464 28.2638 21.8668 28.2731 21.4699 28.1712C21.0729 28.0693 20.6774 27.8416 20.2832 27.4882L17.0507 24.5902L17.5691 24.0119L20.7659 26.8779C21.1558 27.2274 21.5727 27.3942 22.0168 27.3782C22.4587 27.3603 22.8408 27.1715 23.1631 26.812C23.365 26.5867 23.5051 26.3216 23.5832 26.0166C23.6613 25.7116 23.6566 25.3988 23.569 25.0781C23.4793 24.7555 23.2818 24.4572 22.9764 24.1835Z" fill="black"/>
<path d="M26.6032 24.2117L22.2394 19.1252L22.8123 18.6337L23.4828 19.4152L23.5259 19.3783C23.4077 19.035 23.4072 18.6771 23.5244 18.3044C23.642 17.9277 23.8608 17.602 24.1809 17.3274C24.2295 17.2857 24.2845 17.2404 24.346 17.1915C24.4075 17.1425 24.4591 17.1021 24.5007 17.0702L25.0149 17.6696C24.9846 17.6879 24.9326 17.7211 24.8588 17.7691C24.785 17.8171 24.7094 17.8742 24.6322 17.9405C24.3673 18.1678 24.1793 18.4267 24.0684 18.7173C23.9578 19.0039 23.9271 19.2965 23.9765 19.5953C24.0258 19.894 24.1585 20.1693 24.3744 20.4209L27.1927 23.706L26.6032 24.2117Z" fill="black"/>
<path d="M31.0696 14.3691L30.5855 14.9274C30.4169 14.798 30.2344 14.7004 30.038 14.6345C29.8416 14.5687 29.6308 14.5523 29.4054 14.5855C29.1826 14.6171 28.9447 14.716 28.6919 14.8821C28.3127 15.1313 28.0606 15.4257 27.9357 15.7653C27.8108 16.1049 27.8418 16.417 28.0287 16.7014C28.1868 16.942 28.3981 17.0834 28.6624 17.1255C28.9276 17.1636 29.2627 17.1122 29.6679 16.9713L30.6504 16.6233C31.1947 16.4292 31.6649 16.3795 32.0612 16.4741C32.46 16.5672 32.7823 16.8009 33.0283 17.1752C33.236 17.4913 33.333 17.8295 33.3193 18.1901C33.3056 18.5506 33.1882 18.9044 32.9673 19.2515C32.7472 19.5945 32.4317 19.901 32.0208 20.1709C31.4739 20.5303 30.9423 20.7038 30.426 20.6915C29.9082 20.6768 29.4461 20.4688 29.0397 20.0675L29.5626 19.5047C29.8617 19.785 30.1838 19.9336 30.529 19.9504C30.8766 19.9656 31.2425 19.847 31.6266 19.5947C32.0568 19.3119 32.3377 18.9899 32.4692 18.6285C32.5991 18.2647 32.5682 17.937 32.3765 17.6453C32.228 17.4192 32.028 17.2791 31.7767 17.225C31.5237 17.1684 31.2202 17.2043 30.8659 17.3326L29.8069 17.7152C29.244 17.918 28.7629 17.9697 28.3634 17.8702C27.9639 17.7707 27.6411 17.5338 27.3951 17.1594C27.1923 16.8507 27.098 16.5245 27.1124 16.1809C27.1252 15.8349 27.2348 15.4984 27.4411 15.1714C27.6474 14.8445 27.9389 14.5572 28.3157 14.3096C28.8287 13.9726 29.3149 13.8201 29.7746 13.8522C30.2351 13.8803 30.6668 14.0526 31.0696 14.3691Z" fill="black"/>
<path d="M37.6631 17.0337C37.0946 17.2943 36.5422 17.3877 36.0059 17.3136C35.4683 17.2369 34.9779 17.0154 34.5347 16.6491C34.0929 16.2788 33.7307 15.7857 33.4482 15.1696C33.1669 14.5562 33.0295 13.96 33.036 13.381C33.0439 12.7982 33.1857 12.2804 33.4613 11.8276C33.7383 11.371 34.1398 11.022 34.666 10.7807C34.9965 10.6291 35.343 10.5439 35.7055 10.5248C36.0668 10.5032 36.426 10.5608 36.7832 10.6978C37.1419 10.8309 37.4787 11.0525 37.7937 11.3625C38.1074 11.6698 38.3813 12.0786 38.6153 12.5889L38.7753 12.9379L34.0161 15.1204L33.7305 14.4978L37.768 12.6463C37.5885 12.255 37.3479 11.9397 37.0462 11.7004C36.7459 11.4573 36.4138 11.3088 36.0499 11.2549C35.6886 11.1998 35.3255 11.2559 34.9606 11.4232C34.5746 11.6002 34.2822 11.8592 34.0832 12.2C33.8843 12.5408 33.7792 12.9186 33.7678 13.3335C33.7591 13.7471 33.8455 14.1554 34.0272 14.5585L34.1982 14.9313C34.4201 15.4152 34.6973 15.8 35.03 16.0859C35.3642 16.3679 35.7314 16.5371 36.1316 16.5935C36.5319 16.65 36.9436 16.5812 37.3667 16.3872C37.6548 16.255 37.8867 16.0943 38.0623 15.905C38.2406 15.7144 38.3691 15.5098 38.4481 15.2912C38.5285 15.0688 38.5652 14.8487 38.5582 14.6311L39.3285 14.5419C39.3536 14.8408 39.3101 15.1472 39.198 15.461C39.0885 15.7736 38.9068 16.0681 38.6528 16.3446C38.4002 16.6172 38.0703 16.8469 37.6631 17.0337Z" fill="black"/>
<path d="M46.7686 14.0764C46.1809 14.1932 45.6395 14.148 45.1447 13.9408C44.6526 13.7331 44.236 13.3977 43.8949 12.9347C43.5538 12.4716 43.3183 11.9134 43.1885 11.26C43.0576 10.601 43.0624 9.99058 43.2029 9.42886C43.3462 8.86657 43.6058 8.39684 43.9816 8.01967C44.3569 7.63966 44.8313 7.39268 45.4048 7.27875C45.8441 7.19147 46.2591 7.19799 46.6498 7.29832C47.0398 7.3958 47.381 7.57564 47.6733 7.83786C47.9679 8.09666 48.1857 8.42409 48.3267 8.82018L47.5564 8.97321C47.4028 8.61819 47.1473 8.33976 46.7899 8.13793C46.4347 7.93268 46.0232 7.87653 45.5553 7.96949C45.1359 8.05281 44.7877 8.24062 44.5107 8.53291C44.233 8.82235 44.0432 9.18777 43.9411 9.62918C43.8413 10.0672 43.8441 10.5515 43.9495 11.0822C44.0555 11.6157 44.2377 12.0703 44.4962 12.446C44.7542 12.8188 45.0659 13.089 45.4313 13.2567C45.7996 13.4237 46.1992 13.4644 46.63 13.3788C46.921 13.321 47.1756 13.2141 47.3937 13.0581C47.6141 12.8986 47.7855 12.7015 47.9079 12.4666C48.0331 12.2312 48.0965 11.968 48.098 11.677L48.8683 11.524C48.89 11.9319 48.8191 12.3137 48.6555 12.6695C48.4942 13.0218 48.2527 13.3219 47.9313 13.5696C47.6126 13.8168 47.2251 13.9857 46.7686 14.0764Z" fill="black"/>
<path d="M51.1748 9.0439L51.3364 13.2294L50.5604 13.2594L50.2156 4.33025L50.9916 4.30029L51.1184 7.58332L51.1882 7.58063C51.3318 7.22868 51.5638 6.94318 51.8843 6.72413C52.2077 6.50496 52.6223 6.38562 53.128 6.36609C53.5814 6.34858 53.9832 6.42622 54.3334 6.599C54.6836 6.77178 54.9616 7.03613 55.1675 7.39205C55.3733 7.74797 55.4865 8.19189 55.5071 8.7238L55.6746 13.0619L54.8941 13.0921L54.7285 8.80189C54.7072 8.24963 54.5363 7.82104 54.216 7.51612C53.8984 7.20817 53.4795 7.06424 52.9592 7.08433C52.6017 7.09814 52.2864 7.186 52.0132 7.34792C51.74 7.50984 51.5275 7.73636 51.3757 8.0275C51.2267 8.31561 51.1598 8.65442 51.1748 9.0439Z" fill="black"/>
<path d="M60.3017 13.5868C59.7276 13.5134 59.2384 13.3027 58.8342 12.9549C58.4329 12.6074 58.141 12.161 57.9585 11.6157C57.7764 11.0675 57.7285 10.4558 57.8148 9.78065C57.9019 9.09971 58.1025 8.51687 58.4167 8.03213C58.7312 7.54449 59.1262 7.18445 59.6016 6.95199C60.0803 6.71701 60.6068 6.63623 61.181 6.70963C61.7551 6.78304 62.2429 6.99349 62.6442 7.34097C63.0455 7.68846 63.3372 8.1363 63.5193 8.68449C63.7043 9.23306 63.7533 9.8478 63.6662 10.5287C63.5799 11.2039 63.3797 11.7839 63.0655 12.2686C62.7517 12.7505 62.3554 13.1089 61.8767 13.3439C61.4009 13.5792 60.8759 13.6602 60.3017 13.5868ZM60.3919 12.8813C60.8536 12.9403 61.2604 12.8662 61.6124 12.6591C61.9644 12.4519 62.249 12.1525 62.4662 11.7609C62.6863 11.3697 62.8281 10.926 62.8915 10.4297C62.955 9.93342 62.9296 9.46684 62.8153 9.02996C62.704 8.59345 62.5042 8.22921 62.2161 7.93725C61.9279 7.64528 61.553 7.46978 61.0913 7.41076C60.6326 7.35211 60.2256 7.42764 59.8703 7.63735C59.518 7.84742 59.2315 8.1495 59.0111 8.54359C58.7935 8.93805 58.653 9.38342 58.5895 9.87969C58.5261 10.376 58.5502 10.8409 58.6619 11.2745C58.7765 11.7085 58.9781 12.0701 59.2666 12.3592C59.5552 12.6482 59.9303 12.8223 60.3919 12.8813Z" fill="black"/>
<path d="M66.7513 14.9228C66.1962 14.7587 65.7469 14.4727 65.4033 14.0648C65.0626 13.6578 64.8456 13.1705 64.7525 12.6031C64.6602 12.0329 64.7105 11.4214 64.9034 10.7687C65.098 10.1103 65.389 9.56696 65.7765 9.13854C66.1647 8.70733 66.6121 8.41491 67.1186 8.26127C67.6286 8.10567 68.1612 8.1099 68.7163 8.27396C69.2714 8.43803 69.7194 8.72359 70.0601 9.13064C70.4008 9.5377 70.6174 10.0263 70.7097 10.5966C70.8048 11.1676 70.7551 11.7823 70.5605 12.4406C70.3676 13.0934 70.0774 13.634 69.6899 14.0624C69.3033 14.488 68.8549 14.7786 68.3449 14.9342C67.8376 15.0906 67.3064 15.0868 66.7513 14.9228ZM66.9529 14.2407C67.3992 14.3726 67.8126 14.3644 68.1931 14.216C68.5737 14.0676 68.9024 13.8175 69.1793 13.4656C69.459 13.1145 69.6697 12.6991 69.8115 12.2193C69.9533 11.7395 70.0027 11.2748 69.9596 10.8253C69.9194 10.3766 69.7803 9.98518 69.5423 9.65098C69.3044 9.31678 68.9623 9.08373 68.516 8.95182C68.0725 8.82073 67.6586 8.83036 67.2745 8.98071C66.8931 9.13189 66.5622 9.38441 66.2817 9.73828C66.0039 10.093 65.7942 10.5102 65.6524 10.99C65.5106 11.4698 65.4602 11.9327 65.5013 12.3786C65.5452 12.8253 65.6865 13.2143 65.9253 13.5457C66.164 13.8772 66.5065 14.1088 66.9529 14.2407Z" fill="black"/>
<path d="M77.1245 13.3158L76.3957 13.1936C76.4182 12.9823 76.4064 12.7757 76.3603 12.5738C76.3141 12.3718 76.2181 12.1834 76.0723 12.0084C75.9292 11.8346 75.7208 11.6832 75.4473 11.554C75.0369 11.3603 74.6543 11.2987 74.2994 11.3691C73.9444 11.4396 73.6943 11.6287 73.549 11.9364C73.4261 12.1968 73.4155 12.4508 73.5174 12.6983C73.6231 12.9445 73.8417 13.2037 74.1731 13.476L74.9823 14.133C75.4316 14.4964 75.7191 14.8718 75.845 15.2593C75.9734 15.6481 75.942 16.045 75.7508 16.4501C75.5893 16.792 75.3512 17.0511 75.0364 17.2273C74.7216 17.4036 74.3585 17.4879 73.9471 17.4802C73.5397 17.4712 73.1137 17.3617 72.6691 17.1518C72.0773 16.8724 71.6521 16.5092 71.3935 16.0622C71.1361 15.6126 71.0728 15.1098 71.2034 14.5539L71.9563 14.7067C71.873 15.1081 71.9141 15.4604 72.0797 15.7637C72.2479 16.0683 72.5398 16.3187 72.9554 16.515C73.4209 16.7348 73.8422 16.8066 74.2191 16.7305C74.5973 16.6517 74.8609 16.4545 75.0099 16.1388C75.1254 15.8942 75.1407 15.6506 75.0559 15.4078C74.9723 15.1625 74.7834 14.9221 74.4893 14.6867L73.6107 13.9824C73.1442 13.6078 72.8493 13.2241 72.726 12.8313C72.6026 12.4385 72.6366 12.0396 72.8279 11.6345C72.9856 11.3005 73.2148 11.05 73.5155 10.8832C73.8175 10.7138 74.1618 10.6318 74.5483 10.6374C74.9349 10.643 75.332 10.7421 75.7397 10.9346C76.2948 11.1966 76.6783 11.5322 76.8905 11.9412C77.1066 12.3488 77.1846 12.807 77.1245 13.3158Z" fill="black"/>
<path d="M78.2893 20.3283C77.7705 19.9792 77.4028 19.5564 77.1863 19.0602C76.9714 18.5615 76.9048 18.0275 76.9863 17.4583C77.0718 16.8883 77.3038 16.3221 77.6822 15.7598C78.0589 15.1999 78.496 14.7718 78.9935 14.4755C79.4949 14.1783 80.0107 14.0293 80.5408 14.0284C81.0748 14.0266 81.582 14.1873 82.0622 14.5105C82.3639 14.7135 82.6173 14.9647 82.8226 15.2641C83.0294 15.5611 83.1676 15.8977 83.2369 16.2739C83.3103 16.6494 83.2969 17.0523 83.1966 17.4827C83.098 17.9106 82.8919 18.3575 82.5785 18.8233L82.3641 19.1418L78.0202 16.2187L78.4027 15.6504L82.0878 18.1302C82.3281 17.773 82.4717 17.4033 82.5185 17.0211C82.5694 16.6381 82.5229 16.2773 82.3792 15.9386C82.2378 15.6016 82.0007 15.321 81.6676 15.0969C81.3153 14.8598 80.9418 14.7453 80.5473 14.7533C80.1528 14.7612 79.7755 14.8685 79.4156 15.0751C79.0582 15.2833 78.7548 15.57 78.5055 15.9352L78.2766 16.2755C77.9794 16.7171 77.7956 17.1544 77.7251 17.5873C77.6587 18.0195 77.7058 18.421 77.8663 18.792C78.0269 19.163 78.3002 19.4784 78.6864 19.7383C78.9494 19.9153 79.2075 20.0293 79.4606 20.0804C79.7161 20.1332 79.9577 20.1362 80.1854 20.0896C80.4172 20.0422 80.6241 19.9588 80.8061 19.8394L81.2839 20.4502C81.0419 20.6274 80.7578 20.75 80.4316 20.818C80.1077 20.8876 79.7617 20.8861 79.3933 20.8135C79.0289 20.7401 78.6609 20.5784 78.2893 20.3283Z" fill="black"/>
<path d="M84.9921 25.9344C84.7168 25.6383 84.5227 25.3143 84.41 24.9623C84.2994 24.6084 84.2864 24.257 84.3711 23.9081C84.458 23.5573 84.659 23.2353 84.9743 22.9421C85.2171 22.7163 85.4642 22.572 85.7155 22.5091C85.9669 22.4462 86.224 22.4494 86.487 22.5186C86.75 22.5879 87.0194 22.7088 87.295 22.8814C87.5707 23.054 87.8544 23.2629 88.146 23.5082C88.4356 23.7513 88.6813 23.9557 88.8831 24.1216C89.087 24.2895 89.2631 24.3978 89.4116 24.4464C89.5601 24.495 89.6961 24.4619 89.8196 24.347L89.9347 24.2401C90.2691 23.9291 90.4391 23.5843 90.4446 23.2058C90.4543 22.8275 90.2858 22.4519 89.9391 22.0791C89.6103 21.7255 89.2642 21.5092 88.9007 21.4301C88.5392 21.3531 88.2114 21.368 87.9173 21.4746L87.6101 20.7534C87.9815 20.6146 88.3382 20.5689 88.6802 20.6163C89.0243 20.6617 89.3445 20.7732 89.6406 20.9507C89.9388 21.1262 90.2038 21.3385 90.4355 21.5878C90.6098 21.7752 90.7666 21.9929 90.9058 22.2408C91.0469 22.4909 91.138 22.7597 91.179 23.0473C91.2221 23.3329 91.1866 23.63 91.0725 23.9387C90.9605 24.2454 90.7405 24.5513 90.4124 24.8564L87.0797 27.9552L86.5509 27.3865L87.3273 26.6645L87.2946 26.6293C87.0864 26.6959 86.8517 26.7254 86.5906 26.718C86.3295 26.7105 86.0612 26.6463 85.7857 26.5251C85.5102 26.4039 85.2456 26.207 84.9921 25.9344ZM85.5842 25.5268C85.8655 25.8292 86.1762 26.0289 86.5164 26.1256C86.8566 26.2224 87.193 26.2274 87.5254 26.1407C87.862 26.0541 88.1645 25.8861 88.4329 25.6365L89.1422 24.9769C89.0622 24.9719 88.9596 24.9342 88.8345 24.8638C88.7115 24.7956 88.5767 24.7083 88.4304 24.6022C88.2881 24.4961 88.149 24.3871 88.0131 24.2752C87.8772 24.1632 87.7554 24.062 87.6475 23.9717C87.3559 23.7264 87.0828 23.5395 86.8281 23.4109C86.5735 23.2822 86.3337 23.2252 86.1089 23.2396C85.8861 23.2521 85.6757 23.3505 85.4776 23.5347C85.1794 23.812 85.0473 24.1334 85.0813 24.4989C85.1175 24.8625 85.2851 25.2051 85.5842 25.5268Z" fill="black"/>
<path d="M91.3558 34.4097C91.0606 33.8883 90.9337 33.3601 90.9752 32.8252C91.0181 32.2928 91.2059 31.7921 91.5386 31.3229C91.8713 30.8538 92.3275 30.4551 92.9071 30.1269C93.4919 29.7959 94.073 29.609 94.6504 29.5662C95.2293 29.5259 95.7567 29.625 96.2327 29.8636C96.7113 30.1008 97.0946 30.4737 97.3826 30.9825C97.6033 31.3723 97.7273 31.7684 97.7546 32.1708C97.7844 32.5718 97.7206 32.9522 97.5633 33.312C97.41 33.6729 97.1674 33.9824 96.8355 34.2405L96.4486 33.557C96.7375 33.2999 96.9217 32.9699 97.0013 32.5672C97.0848 32.1656 97.009 31.7573 96.774 31.3421C96.5633 30.9701 96.2758 30.6983 95.9113 30.5269C95.5494 30.3541 95.1429 30.2884 94.6917 30.3299C94.2445 30.3725 93.7855 30.5271 93.3147 30.7937C92.8414 31.0617 92.4669 31.3773 92.1912 31.7406C91.9181 32.1025 91.7593 32.4832 91.7147 32.8828C91.6717 33.2849 91.7583 33.6771 91.9747 34.0593C92.1209 34.3175 92.3023 34.5257 92.5188 34.6838C92.7394 34.8431 92.9803 34.944 93.2417 34.9865C93.5046 35.0316 93.7744 35.0092 94.0511 34.9194L94.438 35.6028C94.0575 35.7514 93.6727 35.8038 93.2836 35.7601C92.8984 35.7174 92.5378 35.5823 92.2017 35.3547C91.8671 35.1297 91.5851 34.8147 91.3558 34.4097Z" fill="black"/>
<path d="M94.1541 40.3929C93.9528 39.8502 93.9125 39.3191 94.0331 38.7996C94.1548 38.2829 94.4149 37.8173 94.8133 37.4027C95.2145 36.987 95.7342 36.6609 96.3723 36.4241C97.0159 36.1854 97.6253 36.0927 98.2005 36.1462C98.7784 36.1986 99.2806 36.3815 99.7071 36.6949C100.137 37.01 100.453 37.4389 100.654 37.9816C100.856 38.5243 100.896 39.054 100.774 39.5707C100.652 40.0875 100.391 40.5536 99.9896 40.9693C99.5895 41.3876 99.0676 41.7162 98.424 41.9549C97.7858 42.1916 97.1791 42.2833 96.6039 42.2298C96.0315 42.1753 95.5302 41.9906 95.0999 41.6755C94.6707 41.3631 94.3554 40.9356 94.1541 40.3929ZM94.8209 40.1455C94.9828 40.5819 95.2371 40.9079 95.584 41.1236C95.9308 41.3394 96.3281 41.4526 96.7757 41.4634C97.2244 41.4769 97.6832 41.3967 98.1523 41.2226C98.6214 41.0486 99.023 40.8097 99.357 40.5059C99.6921 40.2047 99.9221 39.8588 100.047 39.4681C100.172 39.0773 100.154 38.6638 99.9917 38.2274C99.8309 37.7938 99.5751 37.4683 99.2246 37.2509C98.875 37.0361 98.4745 36.9225 98.0231 36.91C97.5728 36.9003 97.113 36.9824 96.644 37.1564C96.1749 37.3304 95.7742 37.5675 95.4418 37.8676C95.1105 38.1704 94.8838 38.5167 94.7615 38.9064C94.6393 39.2961 94.6591 39.7092 94.8209 40.1455Z" fill="black"/>
<path d="M98.9626 48.0105L103.027 47.2192L103.175 47.9815L96.5971 49.2623L96.4486 48.5L97.5407 48.2874L97.5291 48.2274C97.1621 48.1388 96.8334 47.9495 96.5428 47.6593C96.255 47.3686 96.0642 46.982 95.9702 46.4995C95.8885 46.0798 95.9073 45.6894 96.0267 45.3283C96.1489 44.9667 96.3704 44.6583 96.6912 44.4033C97.0119 44.1482 97.4321 43.9701 97.9518 43.8689L102.213 43.0392L102.362 43.8015L98.1473 44.622C97.6334 44.7221 97.2488 44.954 96.9937 45.3178C96.7414 45.6811 96.6614 46.0997 96.7537 46.5736C96.8115 46.8706 96.9385 47.1422 97.1346 47.3885C97.3307 47.6348 97.5831 47.8198 97.8916 47.9434C98.203 48.0665 98.56 48.0889 98.9626 48.0105Z" fill="black"/>
<path d="M96.7637 51.1032L103.454 50.7155L103.498 51.4691L102.47 51.5287L102.473 51.5853C102.818 51.6993 103.103 51.9159 103.328 52.235C103.557 52.5569 103.683 52.9283 103.707 53.3494C103.711 53.4133 103.714 53.4845 103.715 53.5631C103.717 53.6416 103.718 53.7072 103.718 53.7596L102.93 53.8053C102.933 53.7701 102.939 53.7086 102.945 53.6208C102.952 53.533 102.952 53.4383 102.946 53.3367C102.926 52.9882 102.834 52.6818 102.67 52.4174C102.509 52.1557 102.295 51.954 102.028 51.8121C101.76 51.6703 101.461 51.609 101.13 51.6282L96.8086 51.8785L96.7637 51.1032Z" fill="black"/>
<path d="M54.5913 70.7447C54.7512 70.9047 55.0105 70.9047 55.1705 70.7447L57.7769 68.1383C57.9368 67.9784 57.9368 67.7191 57.7769 67.5591C57.6169 67.3992 57.3576 67.3992 57.1977 67.5591L54.8809 69.8759L52.564 67.5591C52.4041 67.3992 52.1448 67.3992 51.9848 67.5591C51.8249 67.7191 51.8249 67.9784 51.9848 68.1383L54.5913 70.7447ZM54.8809 40.1368H54.4713L54.4713 70.4551H54.8809H55.2904L55.2904 40.1368H54.8809Z" fill="black"/>
</svg>
