<svg width="58" height="50" viewBox="0 0 58 50" fill="none" xmlns="http://www.w3.org/2000/svg">
<mask id="mask0_202_1655" style="mask-type:luminance" maskUnits="userSpaceOnUse" x="0" y="0" width="50" height="50">
<path d="M0 0H49.674V50H0V0Z" fill="white"/>
</mask>
<g mask="url(#mask0_202_1655)">
<path d="M45.4566 18.9339C46.0186 20.8797 46.3105 22.9171 46.3105 24.9998C46.3105 30.7779 44.0757 36.2106 40.0184 40.2958C35.9607 44.3812 30.5661 46.6318 24.8278 46.6318C19.0898 46.6318 13.6945 44.3812 9.63714 40.2958C5.57949 36.2106 3.34497 30.7779 3.34497 24.9998C3.34497 19.2221 5.57949 13.79 9.63714 9.70394C13.6945 5.61817 19.0898 3.36816 24.8278 3.36816C29.6879 3.36816 34.3013 4.9834 38.0643 7.95955L40.4425 5.56486C36.1767 2.08553 30.7445 0 24.8278 0C11.1157 0 0 11.1928 0 24.9998C0 38.8072 11.1157 50 24.8278 50C38.5398 50 49.6558 38.8072 49.6558 24.9998C49.6558 21.9305 49.105 18.9903 48.0995 16.2733L45.4566 18.9339Z" fill="#3E2526"/>
</g>
<mask id="mask1_202_1655" style="mask-type:luminance" maskUnits="userSpaceOnUse" x="10" y="2" width="48" height="39">
<path d="M10.1064 2.93359H57.9999V40.7515H10.1064V2.93359Z" fill="white"/>
</mask>
<g mask="url(#mask1_202_1655)">
<path d="M57.8737 2.9375C56.3979 3.23143 54.9822 3.66517 53.5668 4.14063C52.1563 4.62158 50.7721 5.18081 49.4066 5.78999C46.6782 7.0117 44.0407 8.46886 41.5412 10.1535C40.9093 10.5654 40.301 11.0113 39.6842 11.4474C39.0825 11.904 38.4679 12.3469 37.8859 12.8303C36.7007 13.773 35.5657 14.7815 34.4616 15.8268C32.2658 17.9282 30.2183 20.2142 28.406 22.6804C27.484 23.8954 26.6026 25.1507 25.7722 26.4467C24.9452 27.7451 24.1593 29.0802 23.404 30.4386C23.0316 31.1194 22.6638 31.8062 22.3168 32.4971C22.1641 32.8062 22.0125 33.1154 21.8634 33.4221C21.4381 32.9107 20.9946 32.3962 20.5554 31.8748C19.5747 30.7545 18.5698 29.6379 17.5078 28.573C16.4473 27.5057 15.3471 26.4744 14.194 25.4942C13.0382 24.5159 11.8472 23.5744 10.5432 22.7377L10.127 23.0864C10.7038 24.5272 11.3729 25.8795 12.0517 27.2164C12.7338 28.5499 13.4432 29.8532 14.168 31.1398C14.8903 32.4291 15.6429 33.6877 16.4055 34.9527C16.7994 35.5765 17.1823 36.2118 17.601 36.843C17.8103 37.16 18.0217 37.4795 18.2559 37.8012C18.4876 38.1262 18.7302 38.4545 19.0299 38.8085C19.1803 38.986 19.3409 39.1731 19.5466 39.379C19.6519 39.4822 19.7617 39.5873 19.902 39.707C19.9649 39.7625 20.0512 39.8301 20.1262 39.8901C20.2184 39.9586 20.2995 40.0195 20.4135 40.0932C20.6298 40.2315 20.8951 40.3899 21.3047 40.5294C21.416 40.5657 21.5249 40.5967 21.6414 40.6235C21.7714 40.6506 21.8949 40.6729 22.034 40.6866C22.3156 40.7155 22.6251 40.7109 22.9342 40.6558C23.2434 40.6053 23.5392 40.5038 23.7888 40.3847C24.0417 40.265 24.2455 40.1301 24.4167 39.9985C24.7543 39.7341 24.9509 39.5005 25.1064 39.3025C25.2634 39.1012 25.3666 38.9337 25.4534 38.7829C25.5435 38.6282 25.6089 38.4981 25.673 38.3683C25.794 38.1171 25.8866 37.9014 25.967 37.6928C26.1258 37.2797 26.252 36.9145 26.3681 36.5521L27.0288 34.4778C27.2475 33.8022 27.4728 33.1324 27.7239 32.4727C28.213 31.1477 28.7965 29.8584 29.446 28.5953C30.0927 27.3309 30.7957 26.0882 31.5471 24.8677C33.0726 22.4553 34.7968 20.17 36.6953 18.0196C37.6505 16.9511 38.6415 15.9097 39.6896 14.9243C40.2051 14.4224 40.7435 13.9442 41.2759 13.4587C41.8234 12.9902 42.3637 12.5099 42.9293 12.0618C44.048 11.1489 45.2062 10.279 46.4032 9.46334C47.6001 8.64704 48.8237 7.86272 50.0839 7.13719C51.3429 6.4083 52.6373 5.74003 53.9543 5.11227C55.2729 4.49731 56.6278 3.92102 57.9993 3.46779L57.8737 2.9375Z" fill="#3E2526"/>
</g>
</svg>
