<svg width="69" height="59" viewBox="0 0 69 59" fill="none" xmlns="http://www.w3.org/2000/svg">
<g clip-path="url(#clip0_202_1375)">
<mask id="mask0_202_1375" style="mask-type:luminance" maskUnits="userSpaceOnUse" x="0" y="1" width="69" height="57">
<path d="M0 1H69V58H0V1Z" fill="white"/>
</mask>
<g mask="url(#mask0_202_1375)">
<path d="M61.2592 1.58603C60.7169 1.07483 59.8493 0.819234 59.0903 1.02371L35.9912 5.57236C35.7745 5.62348 35.6117 5.72572 35.4489 5.82796L1.17994 37.7707C0.475203 38.4353 0.0957031 39.2529 0.0957031 40.173C0.0957031 41.0417 0.420938 41.8085 1.07177 42.4216L16.8505 57.0899C17.6095 57.8053 18.7483 58.2142 19.8868 58.2142C20.7547 58.2142 21.568 57.9586 22.2185 57.3967L52.1497 29.5421C52.2583 29.5932 52.3125 29.6955 52.475 29.7466C53.9391 30.3089 55.5117 30.6156 57.084 30.6156C63.5908 30.6156 68.9045 25.5558 68.9045 19.3717C68.9045 14.3118 65.3259 10.0188 60.4459 8.58775L61.7472 3.63015C62.0724 2.91481 61.8557 2.14801 61.2592 1.58603ZM66.79 19.3717C66.79 24.4315 62.4519 28.5712 57.1382 28.5712C55.9997 28.5712 54.9151 28.3667 53.8848 28.0089L55.2404 26.7312C55.2946 26.6801 55.3489 26.629 55.3489 26.5779L55.9455 25.7603C55.9997 25.658 56.0536 25.5558 56.1079 25.4536L60.0121 10.6322C63.916 11.7565 66.79 15.232 66.79 19.3717ZM51.3365 14.0054C50.3061 14.9764 48.5711 14.9764 47.4865 14.0054C46.4022 13.0342 46.4562 11.3987 47.4865 10.3766C48.0288 9.86541 48.7335 9.60981 49.3843 9.60981C49.8181 9.60981 50.1976 9.71205 50.5771 9.91653C49.8724 10.3766 49.1673 10.8878 48.5711 11.4498C48.1373 11.8587 48.1373 12.523 48.5711 12.8808C49.0048 13.2898 49.7096 13.2898 50.0891 12.8808C50.6314 12.3699 51.2822 11.9099 51.9327 11.5009C52.3125 12.4211 52.0412 13.3409 51.3365 14.0054ZM52.8006 8.89447C50.9027 7.15673 47.866 7.20785 45.9681 8.94559C44.0706 10.7344 44.0706 13.6476 45.9681 15.4364C46.9442 16.3563 48.1916 16.7652 49.4386 16.7652C50.6856 16.7652 51.9327 16.3051 52.9087 15.4364C54.2643 14.1585 54.6438 12.2677 54.0476 10.6322C55.0237 10.3255 56.0536 10.1721 57.1382 10.1721C57.4092 10.1721 57.6263 10.1721 57.8972 10.2232L54.1019 24.7893L53.6681 25.4024L20.7547 55.9653C20.2667 56.4254 18.965 56.1698 18.4231 55.6589L2.58977 40.9395C2.37306 40.735 2.26453 40.4794 2.26453 40.173C2.26453 39.8152 2.42733 39.5085 2.6983 39.2529L36.7505 7.61681L59.5784 3.11929H59.6326C59.6865 3.11929 59.6865 3.11929 59.7408 3.11929C59.7408 3.11929 59.7408 3.11929 59.7408 3.22119L58.4395 8.28103C58.0057 8.22991 57.572 8.22991 57.1382 8.22991C55.6199 8.12767 54.1561 8.38327 52.8006 8.89447Z" fill="black"/>
</g>
<path d="M19.399 40.5816C19.2366 40.4283 19.0195 40.2752 18.7485 40.1219L15.9289 42.7794L14.3563 41.3484L17.881 38.0263C17.7725 37.8218 17.6097 37.6173 17.393 37.4129C17.1759 37.2598 17.0135 37.1065 16.7421 36.9531L11.2656 42.1149L17.881 48.3501C18.2605 48.0949 18.5857 47.7882 18.9113 47.4814C19.2366 47.1747 19.5075 46.868 19.8331 46.5105L17.0677 43.9037L19.887 41.2462C19.7246 40.9906 19.5618 40.7861 19.399 40.5816Z" fill="black"/>
<path d="M26.8812 34.3974C26.9897 34.193 27.044 33.9888 27.0982 33.7332C27.1525 33.4776 27.2064 33.222 27.2064 32.9664C27.2064 32.7108 27.1525 32.4556 27.044 32.2C26.9354 31.9444 26.7726 31.6888 26.5559 31.4843C26.1222 31.0753 25.6884 30.8712 25.2004 30.8712C24.7123 30.8201 24.17 30.9223 23.6277 31.1776C23.0855 31.4332 22.5435 31.6888 22.0012 32.0977C21.4589 32.5067 20.9166 32.9153 20.4286 33.3754C19.9948 33.7843 19.6153 34.1422 19.2901 34.4997C18.9645 34.8575 18.6393 35.2153 18.2598 35.6243L24.8751 41.8596C25.0918 41.7062 25.2546 41.5528 25.4171 41.3995C25.5799 41.2461 25.7427 41.0928 25.9051 40.9394C26.0679 40.786 26.2307 40.6327 26.3389 40.4793C26.5017 40.3263 26.6645 40.173 26.7726 39.9685L21.188 34.653C21.3504 34.4997 21.5132 34.2952 21.676 34.1422C22.1637 33.6821 22.706 33.3243 23.194 33.222C23.682 33.0687 24.17 33.222 24.5495 33.5799C24.7666 33.7843 24.8751 33.9888 24.8751 34.2441C24.8751 34.4997 24.8751 34.7553 24.8209 35.0109C24.7666 35.2665 24.6581 35.5221 24.5495 35.7262C24.441 35.9818 24.3328 36.1352 24.2786 36.3396L24.0615 36.7486L29.7008 37.2598C30.0803 37.0042 30.4056 36.6975 30.7854 36.3396C31.0021 36.1352 31.1649 35.9307 31.3816 35.7262C31.5987 35.5221 31.7611 35.3176 31.9239 35.1642L26.7184 34.7041L26.8812 34.3974Z" fill="black"/>
<path d="M37.4561 27.7024L33.8232 31.1264L32.0881 29.4913L34.9078 26.8334C34.745 26.5778 34.5822 26.3736 34.4197 26.2203C34.2569 26.0669 34.0399 25.9136 33.7689 25.7602L30.9493 28.4178L29.4852 27.0379L33.0099 23.7158C32.9014 23.5113 32.7386 23.3071 32.5219 23.1027C32.3048 22.8982 32.1424 22.7959 31.871 22.6426L26.3945 27.8558L33.0099 34.091L38.6489 28.7756C38.5407 28.5711 38.3779 28.3666 38.1608 28.1622C37.9441 28.0088 37.7271 27.8558 37.4561 27.7024Z" fill="black"/>
<path d="M39.2983 22.6931L42.1179 20.0355C41.9551 19.7799 41.7927 19.5755 41.6299 19.4221C41.4671 19.2687 41.2504 19.1154 40.9791 18.962L38.1598 21.6199L36.6957 20.2908L40.2201 16.969C40.1115 16.7645 39.9491 16.5601 39.732 16.3556C39.5153 16.1511 39.3525 16.0489 39.0812 15.8955L33.5508 21.0576L40.1658 27.2929L45.8051 21.9774C45.6966 21.7729 45.5338 21.5688 45.3171 21.3643C45.1543 21.211 44.9376 21.0576 44.6663 20.9042L41.0333 24.3797L39.2983 22.6931Z" fill="black"/>
</g>
<defs>
<clipPath id="clip0_202_1375">
<rect width="69" height="59" fill="white"/>
</clipPath>
</defs>
</svg>
