<svg width="62" height="61" viewBox="0 0 62 61" fill="none" xmlns="http://www.w3.org/2000/svg">
<g clip-path="url(#clip0_202_1336)">
<path d="M49.1078 15.5381H12.77C12.7031 15.5381 12.6368 15.5445 12.5713 15.5574C12.5057 15.5706 12.4422 15.5896 12.3804 15.6153C12.3186 15.6407 12.2598 15.6722 12.2044 15.7091C12.1487 15.746 12.0974 15.7883 12.0502 15.8354C12.003 15.8825 11.9605 15.9336 11.9235 15.9891C11.8865 16.0446 11.8549 16.1032 11.8294 16.1649C11.8039 16.2261 11.7846 16.2898 11.7717 16.3552C11.7584 16.4205 11.752 16.4865 11.752 16.5532C11.752 16.6199 11.7584 16.686 11.7717 16.7513C11.7846 16.8167 11.8039 16.88 11.8294 16.9416C11.8549 17.0033 11.8865 17.0618 11.9235 17.1174C11.9605 17.1726 12.003 17.224 12.0502 17.2711C12.0974 17.3182 12.1487 17.3605 12.2044 17.3974C12.2598 17.4343 12.3186 17.4658 12.3804 17.4912C12.4422 17.5166 12.5057 17.5359 12.5713 17.5491C12.6368 17.562 12.7031 17.5684 12.77 17.5684H49.1078C49.1748 17.5684 49.241 17.562 49.3066 17.5491C49.3721 17.5359 49.4356 17.5166 49.4975 17.4912C49.5593 17.4658 49.6177 17.4343 49.6734 17.3974C49.7288 17.3605 49.7804 17.3182 49.8276 17.2711C49.8749 17.224 49.917 17.1726 49.9543 17.1174C49.9914 17.0618 50.0226 17.0033 50.0481 16.9416C50.0739 16.88 50.0933 16.8167 50.1062 16.7513C50.1191 16.686 50.1259 16.6199 50.1259 16.5532C50.1259 16.4865 50.1191 16.4205 50.1062 16.3552C50.0933 16.2898 50.0739 16.2261 50.0481 16.1649C50.0226 16.1032 49.9914 16.0446 49.9543 15.9891C49.917 15.9336 49.8749 15.8825 49.8276 15.8354C49.7804 15.7883 49.7288 15.746 49.6734 15.7091C49.6177 15.6722 49.5593 15.6407 49.4975 15.6153C49.4356 15.5896 49.3721 15.5706 49.3066 15.5574C49.241 15.5445 49.1748 15.5381 49.1078 15.5381Z" fill="black"/>
<path d="M49.1078 29.1826H12.77C12.7031 29.1826 12.6368 29.1894 12.5713 29.2023C12.5057 29.2151 12.4422 29.2344 12.3804 29.2602C12.3186 29.2856 12.2598 29.3167 12.2044 29.354C12.1487 29.3909 12.0974 29.4329 12.0502 29.4803C12.003 29.5273 11.9605 29.5785 11.9235 29.634C11.8865 29.6895 11.8549 29.7478 11.8294 29.8094C11.8039 29.871 11.7846 29.9347 11.7717 30C11.7584 30.0654 11.752 30.1314 11.752 30.1981C11.752 30.2648 11.7584 30.3308 11.7717 30.3962C11.7846 30.4615 11.8039 30.5249 11.8294 30.5865C11.8549 30.6481 11.8865 30.7067 11.9235 30.7619C11.9605 30.8174 12.003 30.8689 12.0502 30.916C12.0974 30.963 12.1487 31.005 12.2044 31.0423C12.2598 31.0792 12.3186 31.1103 12.3804 31.1361C12.4422 31.1615 12.5057 31.1808 12.5713 31.1936C12.6368 31.2068 12.7031 31.2133 12.77 31.2133H49.1078C49.1748 31.2133 49.241 31.2068 49.3066 31.1936C49.3721 31.1808 49.4356 31.1615 49.4975 31.1361C49.5593 31.1103 49.6177 31.0792 49.6734 31.0423C49.7288 31.005 49.7804 30.963 49.8276 30.916C49.8749 30.8689 49.917 30.8174 49.9543 30.7619C49.9914 30.7067 50.0226 30.6481 50.0481 30.5865C50.0739 30.5249 50.0933 30.4615 50.1062 30.3962C50.1191 30.3308 50.1259 30.2648 50.1259 30.1981C50.1259 30.1314 50.1191 30.0654 50.1062 30C50.0933 29.9347 50.0739 29.871 50.0481 29.8094C50.0226 29.7478 49.9914 29.6895 49.9543 29.634C49.917 29.5785 49.8749 29.5273 49.8276 29.4803C49.7804 29.4329 49.7288 29.3909 49.6734 29.354C49.6177 29.3167 49.5593 29.2856 49.4975 29.2602C49.4356 29.2344 49.3721 29.2151 49.3066 29.2023C49.241 29.1894 49.1748 29.1826 49.1078 29.1826Z" fill="black"/>
<path d="M12.77 24.391H35.7535C35.8201 24.391 35.8864 24.3846 35.9519 24.3717C36.0175 24.3585 36.0813 24.3392 36.1428 24.3138C36.2046 24.2884 36.2634 24.2569 36.3188 24.22C36.3745 24.1828 36.4258 24.1408 36.473 24.0937C36.5206 24.0466 36.5627 23.9952 36.5997 23.94C36.6367 23.8844 36.6683 23.8259 36.6938 23.7642C36.7193 23.7026 36.7386 23.6393 36.7516 23.5739C36.7648 23.5086 36.7713 23.4425 36.7713 23.3758C36.7713 23.3091 36.7648 23.2431 36.7516 23.1778C36.7386 23.1124 36.7193 23.0487 36.6938 22.9871C36.6683 22.9255 36.6367 22.8673 36.5997 22.8117C36.5627 22.7562 36.5206 22.7051 36.473 22.658C36.4258 22.6106 36.3745 22.5686 36.3188 22.5317C36.2634 22.4944 36.2046 22.4633 36.1428 22.4379C36.0813 22.4122 36.0175 22.3929 35.9519 22.38C35.8864 22.3671 35.8201 22.3604 35.7535 22.3604H12.77C12.7031 22.3604 12.6368 22.3671 12.5713 22.38C12.5057 22.3929 12.4422 22.4122 12.3804 22.4379C12.3186 22.4633 12.2598 22.4944 12.2044 22.5317C12.1487 22.5686 12.0974 22.6106 12.0502 22.658C12.003 22.7051 11.9605 22.7562 11.9235 22.8117C11.8865 22.8673 11.8549 22.9255 11.8294 22.9871C11.8039 23.0487 11.7846 23.1124 11.7717 23.1778C11.7584 23.2431 11.752 23.3091 11.752 23.3758C11.752 23.4425 11.7584 23.5086 11.7717 23.5739C11.7846 23.6393 11.8039 23.7026 11.8294 23.7642C11.8549 23.8259 11.8865 23.8844 11.9235 23.94C11.9605 23.9952 12.003 24.0466 12.0502 24.0937C12.0974 24.1408 12.1487 24.1828 12.2044 24.22C12.2598 24.2569 12.3186 24.2884 12.3804 24.3138C12.4422 24.3392 12.5057 24.3585 12.5713 24.3717C12.6368 24.3846 12.7031 24.391 12.77 24.391Z" fill="black"/>
<mask id="mask0_202_1336" style="mask-type:luminance" maskUnits="userSpaceOnUse" x="-1" y="0" width="63" height="62">
<path d="M-0.105469 0.105469H61.9847V61.0005H-0.105469V0.105469Z" fill="white"/>
</mask>
<g mask="url(#mask0_202_1336)">
<path d="M60.967 0.106445H0.912587C0.845668 0.106445 0.779428 0.112879 0.713867 0.125746C0.648307 0.138952 0.584784 0.158253 0.522961 0.183648C0.461137 0.209044 0.40271 0.240535 0.347 0.277443C0.291291 0.314352 0.239998 0.356678 0.19278 0.403745C0.145563 0.450812 0.103442 0.502281 0.0660755 0.557474C0.0290491 0.613006 -0.00220261 0.671586 -0.0280191 0.733213C-0.053496 0.79484 -0.0728584 0.85816 -0.0857666 0.923512C-0.0986749 0.988863 -0.105469 1.05489 -0.105469 1.1216V44.9205C-0.105469 44.9872 -0.0986749 45.0532 -0.0857666 45.1186C-0.0728584 45.1839 -0.053496 45.2472 -0.0280191 45.3089C-0.00220261 45.3705 0.0290491 45.4291 0.0660755 45.4843C0.103442 45.5398 0.145563 45.5913 0.19278 45.6383C0.239998 45.6854 0.291291 45.7274 0.347 45.7646C0.40271 45.8016 0.461137 45.8327 0.522961 45.8584C0.584784 45.8838 0.648307 45.9031 0.713867 45.916C0.779428 45.9292 0.845668 45.9356 0.912587 45.9356H36.6804C36.6998 46.3227 36.6658 46.7053 36.5788 47.0829C36.4158 48.0171 36.2123 49.1744 37.0062 49.9461C37.1913 50.1165 37.4002 50.2495 37.6332 50.3457C37.8659 50.4419 38.1081 50.4947 38.3602 50.5045V60.0073C38.3605 60.0879 38.3704 60.1671 38.3894 60.2453C38.4088 60.3235 38.437 60.3984 38.4743 60.4698C38.5113 60.5416 38.5565 60.6076 38.6095 60.6686C38.6625 60.7292 38.7216 60.783 38.7875 60.8298C38.8521 60.8761 38.9214 60.9144 38.9951 60.9445C39.0688 60.9747 39.1449 60.996 39.2237 61.0082C39.3021 61.0207 39.3813 61.0238 39.4608 61.0177C39.5399 61.0112 39.6177 60.996 39.6935 60.972L44.172 59.5606L48.7524 61.0228C48.8509 61.0383 48.9494 61.0383 49.0476 61.0228C49.2707 61.0194 49.4742 60.9554 49.6583 60.8298C49.7222 60.782 49.7799 60.7275 49.8309 60.6662C49.8818 60.6049 49.925 60.5385 49.9603 60.4671C49.9956 60.3957 50.0225 60.3212 50.0401 60.2433C50.0578 60.1657 50.0663 60.0868 50.0656 60.0073V50.5451C50.3197 50.5401 50.5646 50.4896 50.8 50.3934C51.0354 50.2969 51.245 50.1615 51.4295 49.9864C52.2131 49.2151 52.0199 48.0577 51.8571 47.1235C51.7644 46.7463 51.7308 46.364 51.7552 45.9763H60.916C60.983 45.9763 61.0492 45.9698 61.1148 45.9566C61.1803 45.9438 61.2438 45.9245 61.3057 45.8991C61.3672 45.8733 61.4259 45.8422 61.4816 45.8053C61.537 45.768 61.5886 45.726 61.6358 45.679C61.6831 45.6319 61.7252 45.5804 61.7626 45.5249C61.7996 45.4697 61.8308 45.4111 61.8563 45.3495C61.8821 45.2879 61.9015 45.2246 61.9144 45.1592C61.9273 45.0939 61.9341 45.0278 61.9341 44.9611V1.1216C61.9341 1.05692 61.928 0.992927 61.9158 0.929607C61.9035 0.866287 61.8855 0.804321 61.8617 0.744387C61.8376 0.684453 61.8081 0.627228 61.7734 0.57305C61.7384 0.518534 61.6987 0.467742 61.6539 0.421014C61.6094 0.374286 61.5608 0.33196 61.5081 0.294374C61.4555 0.256788 61.3998 0.22462 61.341 0.19787C61.2819 0.170781 61.2211 0.149449 61.1582 0.134211C61.0954 0.118974 61.0315 0.109493 60.967 0.106445ZM52.3151 42.9C52.2702 42.963 52.2193 43.0205 52.1625 43.0727C51.9587 43.245 51.6431 43.4584 51.4295 43.6107L50.8697 44.0167L50.7474 44.1082C50.3921 44.3814 50.1172 44.7197 49.9229 45.1233C49.8136 45.4965 49.7585 45.8771 49.7585 46.2658C49.7585 46.6542 49.8136 47.0348 49.9229 47.4079C49.9946 47.7425 50.032 48.0807 50.035 48.4231C49.7874 48.4502 49.5398 48.4502 49.2918 48.4231H48.9562C48.5801 48.3161 48.1966 48.2626 47.806 48.2626C47.415 48.2626 47.0315 48.3161 46.6558 48.4231C46.3226 48.6012 46.0206 48.8216 45.7488 49.0837C45.4774 49.3458 45.2471 49.64 45.0575 49.9665C44.8446 50.2871 44.6105 50.5915 44.3554 50.88C44.0442 50.6179 43.783 50.3135 43.5714 49.9665L43.1543 49.5195C42.9949 49.2865 42.8084 49.0783 42.5944 48.8941C42.3804 48.7099 42.1464 48.5561 41.892 48.4332C41.7282 48.3655 41.5584 48.3184 41.3831 48.291H40.8539C40.667 48.2809 40.4805 48.2809 40.294 48.291L39.6425 48.3926H39.3066C39.0542 48.439 38.7997 48.4593 38.5433 48.4535C38.5552 48.1116 38.5956 47.7733 38.6652 47.4384C38.7749 47.0652 38.8296 46.6847 38.8296 46.2959C38.8296 45.9075 38.7749 45.5269 38.6652 45.1538C38.4713 44.7502 38.1965 44.4119 37.8408 44.1386L37.7188 44.0472L37.159 43.6412C36.945 43.4888 36.6298 43.2755 36.426 43.1032C36.3662 43.0507 36.3118 42.9935 36.2633 42.9305C36.5364 42.6647 36.835 42.431 37.159 42.2299C37.6638 41.917 38.1051 41.531 38.4821 41.0725C38.5742 40.9469 38.6489 40.8115 38.706 40.6665C38.8147 40.2951 38.869 39.9162 38.869 39.5295C38.869 39.1424 38.8147 38.7635 38.706 38.3921C38.6364 38.0572 38.5956 37.7189 38.584 37.3769C38.9543 37.381 39.3208 37.4216 39.6833 37.4988C40.0597 37.6031 40.4428 37.6553 40.8335 37.6553C41.2241 37.6553 41.6073 37.6031 41.9837 37.4988C42.3172 37.319 42.6199 37.0972 42.8913 36.8335C43.1631 36.5693 43.3931 36.2734 43.5816 35.9453C43.7942 35.6273 44.0283 35.3263 44.2841 35.0419C44.5952 35.2999 44.8564 35.6009 45.0677 35.9453C45.2563 36.2734 45.4866 36.5693 45.758 36.8335C46.0297 37.0972 46.3321 37.319 46.666 37.4988C46.843 37.5699 47.0261 37.6173 47.2156 37.641H47.2258C47.7707 37.6708 48.3101 37.6302 48.8441 37.5191C49.1189 37.5191 49.5364 37.4074 49.7908 37.3972H49.9433C49.9359 37.7389 49.8985 38.0775 49.8316 38.4124C49.7555 38.795 49.7045 39.1807 49.6787 39.5698C49.6573 39.9558 49.7185 40.3279 49.8621 40.6868C50.0442 41.02 50.2694 41.3214 50.5378 41.5906C50.8061 41.8601 51.1068 42.0867 51.4397 42.2705C51.7552 42.4473 52.047 42.6572 52.3151 42.9ZM50.5847 35.3564C49.906 35.2142 49.2276 35.2142 48.5489 35.3564C48.1576 35.4543 47.7605 35.4882 47.3579 35.458C47.079 35.2081 46.8416 34.924 46.6456 34.6054C46.0858 33.8236 45.3833 32.8487 44.2433 32.8487C43.1033 32.8487 42.4008 33.8642 41.841 34.6054C41.645 34.924 41.4076 35.2081 41.1287 35.458C40.7265 35.4831 40.3297 35.4492 39.9377 35.3564C39.0012 35.2044 37.8306 35.0114 37.0469 35.7729C36.2633 36.5341 36.4566 37.7118 36.6196 38.646C36.6267 38.7578 36.6267 38.8695 36.6196 38.9809C36.6196 39.1028 36.6196 39.2247 36.6196 39.3466H14.6538C14.094 36.7373 11.4271 34.6965 8.08857 34.3413V11.6297C11.4271 11.2745 14.094 9.24384 14.6538 6.62435H47.2258C47.7856 9.23368 50.4522 11.2846 53.791 11.6297V34.4124C53.2315 34.4679 52.6823 34.5749 52.1432 34.7337C51.6041 34.8925 51.0847 35.1001 50.5847 35.3564ZM44.4773 57.5198C44.3758 57.5046 44.2739 57.5046 44.172 57.5198C44.0704 57.5046 43.9685 57.5046 43.8666 57.5198L40.4364 58.6163V50.3318C40.596 50.3234 40.7553 50.3234 40.915 50.3318C40.9826 50.3142 41.0505 50.3142 41.1185 50.3318C41.3974 50.5817 41.6348 50.8658 41.8308 51.1848C42.391 51.9663 43.0931 52.931 44.2331 52.931C45.3731 52.931 46.0756 51.9663 46.6354 51.1848C46.8284 50.8634 47.0658 50.579 47.3477 50.3318C47.4089 50.319 47.47 50.319 47.5312 50.3318H47.592C47.6837 50.3223 47.7754 50.3223 47.8668 50.3318H48.0197V58.6264L44.4773 57.5198ZM59.9489 43.905H54.1168C54.1168 43.905 54.1168 43.905 54.1168 43.8342C54.1704 43.732 54.2177 43.627 54.2591 43.5193C54.2591 43.5193 54.2591 43.4381 54.2591 43.3873C54.3046 43.2281 54.3281 43.0656 54.3304 42.9C54.3304 41.763 53.3127 41.0827 52.5389 40.5243C52.2206 40.3313 51.9322 40.1014 51.6737 39.8339C51.6622 39.7662 51.6622 39.6984 51.6737 39.6307C51.69 39.3131 51.7308 38.9982 51.796 38.6867C51.8653 38.3173 51.9129 37.9448 51.9383 37.5699C51.9587 37.3634 51.9587 37.1568 51.9383 36.9506C52.3884 36.7637 52.8521 36.6232 53.3304 36.5294C53.8083 36.4353 54.291 36.3895 54.7782 36.3923C54.8451 36.3923 54.9113 36.3855 54.9769 36.3726C55.0424 36.3597 55.106 36.3404 55.1678 36.3147C55.2296 36.2893 55.2884 36.2582 55.3437 36.2209C55.3995 36.184 55.4507 36.142 55.498 36.0946C55.5452 36.0475 55.5876 35.9964 55.6247 35.9409C55.6617 35.8854 55.6929 35.8271 55.7188 35.7655C55.7442 35.7039 55.7636 35.6402 55.7765 35.5748C55.7898 35.5095 55.7962 35.4435 55.7962 35.3768V10.6653C55.7962 10.5986 55.7898 10.5326 55.7765 10.4672C55.7636 10.4016 55.7442 10.3382 55.7188 10.2766C55.6929 10.215 55.6617 10.1564 55.6247 10.1012C55.5876 10.0457 55.5452 9.99454 55.498 9.94713C55.4507 9.90007 55.3995 9.85808 55.3437 9.82083C55.2884 9.78393 55.2296 9.75277 55.1678 9.72704C55.106 9.70164 55.0424 9.68234 54.9769 9.66947C54.9113 9.65627 54.8451 9.64984 54.7782 9.64984C51.6635 9.64984 49.1189 7.84267 49.1189 5.58888C49.1189 5.52218 49.1124 5.45615 49.0995 5.3908C49.0863 5.32544 49.0669 5.26179 49.0414 5.20016C49.016 5.13853 48.9844 5.08029 48.9473 5.02476C48.9103 4.96923 48.8682 4.9181 48.8206 4.87103C48.7734 4.82362 48.7221 4.78164 48.6664 4.74473C48.6111 4.70748 48.5523 4.67633 48.4905 4.65093C48.429 4.6252 48.3651 4.6059 48.2996 4.59303C48.234 4.58016 48.1678 4.57339 48.1012 4.57339H13.7478C13.6809 4.57339 13.615 4.58016 13.5495 4.59303C13.4839 4.6059 13.42 4.6252 13.3582 4.65093C13.2967 4.67633 13.238 4.70748 13.1822 4.74473C13.1269 4.78164 13.0752 4.82362 13.028 4.87103C12.9808 4.9181 12.9387 4.96923 12.9017 5.02476C12.8643 5.08029 12.833 5.13853 12.8076 5.20016C12.7817 5.26179 12.7627 5.32544 12.7495 5.3908C12.7366 5.45615 12.7301 5.52218 12.7301 5.58888C12.7301 7.82236 10.1855 9.64984 7.07052 9.64984C7.00394 9.64984 6.9377 9.65627 6.87214 9.66947C6.80657 9.68234 6.74271 9.70164 6.68123 9.72704C6.61941 9.75277 6.56064 9.78393 6.50527 9.82083C6.44956 9.85808 6.39827 9.90007 6.35105 9.94713C6.30349 9.99454 6.26137 10.0457 6.22434 10.1012C6.18732 10.1564 6.15573 10.215 6.13025 10.2766C6.10477 10.3382 6.08541 10.4016 6.07216 10.4672C6.05925 10.5326 6.0528 10.5986 6.0528 10.6653V35.3768C6.0528 35.4435 6.05925 35.5095 6.07216 35.5748C6.08541 35.6402 6.10477 35.7039 6.13025 35.7655C6.15573 35.8271 6.18732 35.8854 6.22434 35.9409C6.26137 35.9964 6.30349 36.0475 6.35105 36.0946C6.39827 36.142 6.44956 36.184 6.50527 36.2209C6.56064 36.2582 6.61941 36.2893 6.68123 36.3147C6.74271 36.3404 6.80657 36.3597 6.87214 36.3726C6.9377 36.3855 7.00394 36.3923 7.07052 36.3923C10.1855 36.3923 12.7301 38.1994 12.7301 40.4532C12.7301 40.5199 12.7366 40.5859 12.7495 40.6513C12.7627 40.7166 12.7817 40.7803 12.8076 40.8416C12.833 40.9032 12.8643 40.9618 12.9017 41.0173C12.9387 41.0725 12.9808 41.124 13.028 41.1711C13.0752 41.2181 13.1269 41.2605 13.1822 41.2974C13.238 41.3343 13.2967 41.3658 13.3582 41.3912C13.42 41.4165 13.4839 41.4359 13.5495 41.4491C13.615 41.4619 13.6809 41.4684 13.7478 41.4684H34.6956C34.5974 41.5628 34.5094 41.6658 34.4313 41.7775C34.3532 41.8889 34.2866 42.0067 34.2316 42.1314C34.1765 42.256 34.1344 42.3846 34.1045 42.5174C34.0746 42.6501 34.058 42.7842 34.0543 42.9203C34.0566 43.0859 34.0804 43.2484 34.1256 43.4076C34.1256 43.4076 34.1256 43.499 34.1256 43.5396C34.167 43.6473 34.2146 43.7523 34.2683 43.8542V43.9253H1.9303V2.13675H59.9489V43.905Z" fill="black"/>
</g>
</g>
<defs>
<clipPath id="clip0_202_1336">
<rect width="62" height="61" fill="white"/>
</clipPath>
</defs>
</svg>
