<svg width="61" height="61" viewBox="0 0 61 61" fill="none" xmlns="http://www.w3.org/2000/svg">
<g clip-path="url(#clip0_202_1351)">
<path d="M12.2903 20.1523H5.7569C5.19583 20.1523 4.74023 20.6079 4.74023 21.169V27.7043C4.74023 28.2653 5.19583 28.7209 5.7569 28.7209H12.2922C12.8532 28.7209 13.3088 28.2653 13.3088 27.7043V21.169C13.3069 20.606 12.8532 20.1523 12.2903 20.1523ZM11.2736 26.6876H6.77357V22.1857H11.2755V26.6876H11.2736Z" fill="black"/>
<path d="M22.5304 20.1523H15.9932C15.4322 20.1523 14.9766 20.6079 14.9766 21.169V27.7043C14.9766 28.2653 15.4322 28.7209 15.9932 28.7209H22.5285C23.0896 28.7209 23.5452 28.2653 23.5452 27.7043V21.169C23.5471 20.606 23.0918 20.1523 22.5304 20.1523ZM21.5137 26.6876H17.0099V22.1857H21.5118V26.6876H21.5137Z" fill="black"/>
<path d="M32.7684 20.1523H26.2335C25.6721 20.1523 25.2168 20.6079 25.2168 21.169V27.7043C25.2168 28.2653 25.6721 28.7209 26.2335 28.7209H32.7684C33.3298 28.7209 33.7851 28.2653 33.7851 27.7043V21.169C33.7851 20.606 33.3317 20.1523 32.7684 20.1523ZM31.7517 26.6876H27.2501V22.1857H31.7517V26.6876Z" fill="black"/>
<path d="M36.4737 28.7209H43.009C43.57 28.7209 44.0256 28.2653 44.0256 27.7043V21.169C44.0256 20.6079 43.57 20.1523 43.009 20.1523H36.4737C35.9126 20.1523 35.457 20.6079 35.457 21.169V27.7043C35.457 28.2653 35.9104 28.7209 36.4737 28.7209ZM37.4904 22.1857H41.9923V26.6876H37.4904V22.1857Z" fill="black"/>
<path d="M12.2903 31.0449H5.7569C5.19583 31.0449 4.74023 31.5005 4.74023 32.0616V38.5968C4.74023 39.1579 5.19583 39.6135 5.7569 39.6135H12.2922C12.8532 39.6135 13.3088 39.1579 13.3088 38.5968V32.0616C13.3069 31.5005 12.8532 31.0449 12.2903 31.0449ZM11.2736 37.5802H6.77357V33.0783H11.2755V37.5802H11.2736Z" fill="black"/>
<path d="M22.5304 31.0449H15.9932C15.4322 31.0449 14.9766 31.5005 14.9766 32.0616V38.5968C14.9766 39.1579 15.4322 39.6135 15.9932 39.6135H22.5285C23.0896 39.6135 23.5452 39.1579 23.5452 38.5968V32.0616C23.5471 31.5005 23.0918 31.0449 22.5304 31.0449ZM21.5137 37.5802H17.0099V33.0783H21.5118V37.5802H21.5137Z" fill="black"/>
<path d="M32.7684 31.0449H26.2335C25.6721 31.0449 25.2168 31.5005 25.2168 32.0616V38.5968C25.2168 39.1579 25.6721 39.6135 26.2335 39.6135H32.7684C33.3298 39.6135 33.7851 39.1579 33.7851 38.5968V32.0616C33.7851 31.5005 33.3317 31.0449 32.7684 31.0449ZM31.7517 37.5802H27.2501V33.0783H31.7517V37.5802Z" fill="black"/>
<path d="M48.7593 34.6988V16.8319C48.7593 16.8258 48.7635 16.8198 48.7635 16.8115C48.7635 16.8036 48.7593 16.7995 48.7593 16.7912V9.17033C48.7593 7.0293 47.0167 5.28667 44.8757 5.28667H42.6816V3.41409C42.6816 1.53104 41.1505 0 39.2678 0C37.3847 0 35.8537 1.53104 35.8537 3.41409V5.28667H12.9075V3.41409C12.9075 1.53104 11.3765 0 9.49376 0C7.61293 0 6.08157 1.53104 6.08157 3.41409V5.28667H3.88367C1.74263 5.28667 0 7.0293 0 9.17033V51.4637C0 53.6047 1.74263 55.3473 3.88367 55.3473H37.1449C39.6074 58.8364 43.5623 60.9187 47.8647 60.9187C55.1075 60.9187 61 55.0261 61 47.7833C61 40.8821 55.6463 35.2192 48.7593 34.6988ZM40.8414 36.6896C40.4144 36.96 39.9957 37.2526 39.5909 37.576H37.4947V33.0823H41.9883V36.0348C41.6852 36.1873 41.3904 36.3662 41.0956 36.5431C41.0123 36.594 40.925 36.6365 40.8414 36.6896ZM37.8893 3.41409C37.8893 2.6535 38.5072 2.03333 39.2678 2.03333C40.0281 2.03333 40.6482 2.6535 40.6482 3.41409V5.28667H37.8893V3.41409ZM37.8893 7.32H40.6482V8.96891C40.6482 9.7295 40.0281 10.3497 39.2678 10.3497C38.5072 10.3497 37.887 9.7295 37.887 8.96891V7.32H37.8893ZM8.11491 3.41409C8.11491 2.6535 8.73317 2.03333 9.49376 2.03333C10.254 2.03333 10.8742 2.6535 10.8742 3.41409V5.28667H8.11491V3.41409ZM8.11491 7.32H10.8742V8.96891C10.8742 9.7295 10.254 10.3497 9.49376 10.3497C8.73317 10.3497 8.11491 9.7295 8.11491 8.96891V7.32ZM3.88367 7.32H6.08157V8.96891C6.08157 10.852 7.61293 12.383 9.49376 12.383C11.3765 12.383 12.9075 10.852 12.9075 8.96891V7.32H35.8559V8.96891C35.8559 10.852 37.387 12.383 39.2697 12.383C41.1528 12.383 42.6838 10.852 42.6838 8.96891V7.32H44.8776C45.8984 7.32 46.7279 8.14954 46.7279 9.17033V15.7949H2.03333V9.17033C2.03333 8.14954 2.86287 7.32 3.88367 7.32ZM3.88367 53.314C2.86287 53.314 2.03333 52.4845 2.03333 51.4637V17.8282H46.726V34.6969C46.6895 34.7007 46.6529 34.7109 46.6161 34.715C45.9959 34.7741 45.384 34.8799 44.78 35.0261C44.6561 35.0566 44.536 35.0912 44.414 35.1239C44.2841 35.1605 44.1519 35.1887 44.0217 35.2294V32.0657C44.0217 31.5046 43.5661 31.049 43.005 31.049H36.478C35.9169 31.049 35.4613 31.5046 35.4613 32.0657V38.5927C35.4613 39.1537 35.9169 39.6093 36.478 39.6093H37.5862C35.7441 41.9172 34.709 44.7842 34.709 47.7833C34.709 48.3527 34.7579 48.916 34.831 49.4751C34.8532 49.6438 34.886 49.8084 34.9142 49.9774C34.9835 50.38 35.069 50.7784 35.1767 51.173C35.2234 51.3436 35.2663 51.5126 35.319 51.6813C35.4632 52.1448 35.6342 52.6004 35.8292 53.0455C35.862 53.1167 35.8842 53.192 35.9169 53.2632C35.9249 53.2794 35.929 53.2956 35.9373 53.3121H3.88367V53.314ZM47.8647 58.8853C44.0623 58.8853 40.565 56.9781 38.5113 53.7798C37.3542 51.9863 36.7423 49.9123 36.7423 47.7833C36.7423 44.5462 38.1555 41.4781 40.6098 39.3695C41.48 38.6352 42.4236 38.0437 43.4098 37.6125C43.4098 37.6125 43.4098 37.6125 43.4117 37.6106C44.7861 37.0108 46.2482 36.6975 47.8647 36.6794C53.9869 36.6794 58.9667 41.6589 58.9667 47.7814C58.9667 53.9037 53.9869 58.8853 47.8647 58.8853Z" fill="black"/>
<path d="M12.2903 41.9375H5.7569C5.19583 41.9375 4.74023 42.3931 4.74023 42.9542V49.4894C4.74023 50.0505 5.19583 50.5061 5.7569 50.5061H12.2922C12.8532 50.5061 13.3088 50.0505 13.3088 49.4894V42.9542C13.3069 42.3931 12.8532 41.9375 12.2903 41.9375ZM11.2736 48.4728H6.77357V43.9708H11.2755V48.4728H11.2736Z" fill="black"/>
<path d="M22.5304 41.9375H15.9932C15.4322 41.9375 14.9766 42.3931 14.9766 42.9542V49.4894C14.9766 50.0505 15.4322 50.5061 15.9932 50.5061H22.5285C23.0896 50.5061 23.5452 50.0505 23.5452 49.4894V42.9542C23.5471 42.3931 23.0918 41.9375 22.5304 41.9375ZM21.5137 48.4728H17.0099V43.9708H21.5118V48.4728H21.5137Z" fill="black"/>
<path d="M32.7684 41.9375H26.2335C25.6721 41.9375 25.2168 42.3931 25.2168 42.9542V49.4894C25.2168 50.0505 25.6721 50.5061 26.2335 50.5061H32.7684C33.3298 50.5061 33.7851 50.0505 33.7851 49.4894V42.9542C33.7851 42.3931 33.3317 41.9375 32.7684 41.9375ZM31.7517 48.4728H27.2501V43.9708H31.7517V48.4728Z" fill="black"/>
<path d="M47.7432 40.7564C48.3043 40.7564 48.7599 40.3008 48.7599 39.7398V38.5928C48.7599 38.0318 48.3043 37.5762 47.7432 37.5762C47.1822 37.5762 46.7266 38.0318 46.7266 38.5928V39.7398C46.7266 40.3027 47.1822 40.7564 47.7432 40.7564Z" fill="black"/>
<path d="M47.7432 55.0586C47.1822 55.0586 46.7266 55.5142 46.7266 56.0753V57.2241C46.7266 57.7855 47.1822 58.2408 47.7432 58.2408C48.3043 58.2408 48.7599 57.7855 48.7599 57.2241V56.0753C48.7599 55.5142 48.3043 55.0586 47.7432 55.0586Z" fill="black"/>
<path d="M57.06 46.8926H55.9112C55.3498 46.8926 54.8945 47.3479 54.8945 47.9092C54.8945 48.4703 55.3498 48.9259 55.9112 48.9259H57.06C57.6211 48.9259 58.0767 48.4703 58.0767 47.9092C58.0767 47.3479 57.6211 46.8926 57.06 46.8926Z" fill="black"/>
<path d="M39.5757 46.8926H38.4268C37.8657 46.8926 37.4102 47.3479 37.4102 47.9092C37.4102 48.4703 37.8657 48.9259 38.4268 48.9259H39.5757C40.137 48.9259 40.5923 48.4703 40.5923 47.9092C40.5923 47.3479 40.139 46.8926 39.5757 46.8926Z" fill="black"/>
<path d="M48.7599 47.3581V43.2266C48.7599 42.6652 48.3043 42.21 47.7432 42.21C47.1822 42.21 46.7266 42.6652 46.7266 43.2266V47.7832C46.7266 48.0558 46.8365 48.316 47.0297 48.5069L49.8662 51.3028C50.0654 51.4982 50.3214 51.5957 50.5797 51.5957C50.8422 51.5957 51.1043 51.494 51.3035 51.2926C51.6981 50.8923 51.6939 50.2496 51.2933 49.8553L48.7599 47.3581Z" fill="black"/>
</g>
<defs>
<clipPath id="clip0_202_1351">
<rect width="61" height="61" fill="white"/>
</clipPath>
</defs>
</svg>
