<svg width="23" height="23" viewBox="0 0 23 23" fill="none" xmlns="http://www.w3.org/2000/svg">
<path fill-rule="evenodd" clip-rule="evenodd" d="M11.5 11.5C14.3239 11.5 16.6111 9.21278 16.6111 6.38889C16.6111 3.565 14.3239 1.27778 11.5 1.27778C8.67611 1.27778 6.38889 3.565 6.38889 6.38889C6.38889 9.21278 8.67611 11.5 11.5 11.5ZM17.8889 6.38889C17.8889 9.91875 15.0299 12.7778 11.5 12.7778C7.97014 12.7778 5.11111 9.91875 5.11111 6.38889C5.11111 2.85903 7.97014 0 11.5 0C15.0299 0 17.8889 2.85903 17.8889 6.38889ZM2.05914 18.0243C1.41833 18.5418 1.27778 18.9296 1.27778 19.1667V21.7222H21.7222V19.1667C21.7222 18.9303 21.5817 18.5412 20.9402 18.0243C20.3141 17.519 19.3801 17.0373 18.2479 16.6207C15.985 15.7882 13.2589 15.3333 11.5 15.3333C9.74114 15.3333 7.015 15.7882 4.75206 16.6207C3.61994 17.0373 2.68589 17.519 2.05914 18.0243ZM11.5 14.0556C7.66156 14.0556 0 15.9946 0 19.1667V23H23V19.1667C23 15.9946 15.3384 14.0556 11.5 14.0556Z" fill="black"/>
</svg>
