<svg width="140" height="54" viewBox="0 0 140 54" fill="none" xmlns="http://www.w3.org/2000/svg">
<rect width="140" height="54" fill="#151316"/>
<path d="M21.1961 25.5779C20.4935 25.5779 19.8815 25.3739 19.3601 24.9659C18.8388 24.5579 18.5781 23.9006 18.5781 22.9939C18.5781 22.3819 18.7141 21.5773 18.9861 20.5799C19.2581 19.5826 19.7115 18.3359 20.3461 16.8399C21.0261 15.1853 21.7968 13.5419 22.6581 11.9099C23.5195 10.2553 24.4828 8.74792 25.5481 7.38792C25.9788 6.84392 26.4661 6.43592 27.0101 6.16392C27.5541 5.86926 28.0528 5.72192 28.5061 5.72192C28.9368 5.72192 29.2881 5.83526 29.5601 6.06192C29.8321 6.28859 29.9681 6.63992 29.9681 7.11592C29.9681 7.36526 29.9115 7.67126 29.7981 8.03392C29.6848 8.37392 29.5035 8.77059 29.2541 9.22392C28.7101 10.1986 27.8601 11.3886 26.7041 12.7939C25.5708 14.1766 23.9615 15.7746 21.8761 17.5879C21.5135 18.5173 21.1508 19.3899 20.7881 20.2059C20.4481 20.9993 20.2328 21.7019 20.1421 22.3139C20.1195 22.4273 20.0968 22.5406 20.0741 22.6539C20.0741 22.7673 20.0741 22.8806 20.0741 22.9939C20.0741 23.6286 20.2215 24.0819 20.5161 24.3539C20.8335 24.6033 21.2075 24.7279 21.6381 24.7279C22.0235 24.7279 22.4315 24.6373 22.8621 24.4559C23.3155 24.2746 23.7121 24.0593 24.0521 23.8099C24.7775 23.2659 25.4915 22.5859 26.1941 21.7699C26.9195 20.9313 27.5768 20.0813 28.1661 19.2199C28.2341 19.1066 28.3135 19.0499 28.4041 19.0499C28.5401 19.0499 28.6081 19.1406 28.6081 19.3219C28.6081 19.4126 28.5741 19.5146 28.5061 19.6279C27.8715 20.6026 27.1688 21.5206 26.3981 22.3819C25.6501 23.2433 24.8795 23.9799 24.0861 24.5919C23.6781 24.9093 23.2135 25.1473 22.6921 25.3059C22.1935 25.4873 21.6948 25.5779 21.1961 25.5779ZM22.4881 16.0919C23.8028 14.9586 24.9135 13.8593 25.8201 12.7939C26.7268 11.7059 27.4748 10.6746 28.0641 9.69992C28.4495 9.08792 28.7101 8.57792 28.8461 8.16992C29.0048 7.76192 29.0841 7.45592 29.0841 7.25192C29.0841 7.00259 28.9935 6.87792 28.8121 6.87792C28.3815 6.87792 27.7808 7.39926 27.0101 8.44192C26.1035 9.71126 25.2875 10.9579 24.5621 12.1819C23.8595 13.3833 23.1681 14.6866 22.4881 16.0919Z" fill="white"/>
<path d="M30.1657 25.2039C29.4631 25.2039 28.9644 24.9999 28.6698 24.5919C28.3977 24.1613 28.2618 23.6399 28.2618 23.0279C28.2618 22.4386 28.3411 21.8266 28.4998 21.1919C28.6811 20.5346 28.8851 19.9226 29.1118 19.3559C29.3384 18.7893 29.5198 18.3473 29.6558 18.0299C29.3611 18.4606 29.0551 18.8913 28.7378 19.3219C28.4431 19.7526 28.1144 20.1719 27.7517 20.5799C27.5478 20.8066 27.3551 20.9199 27.1737 20.9199C27.0831 20.9199 27.0378 20.8746 27.0378 20.7839C27.0378 20.6933 27.0944 20.5799 27.2078 20.4439C28.0011 19.4239 28.6584 18.4833 29.1798 17.6219C29.7238 16.7606 30.1318 16.1146 30.4038 15.6839C30.5851 15.3666 30.8798 15.1739 31.2878 15.1059C31.6958 15.0379 32.0471 15.0153 32.3418 15.0379C32.4324 15.0379 32.5344 15.0493 32.6477 15.0719C32.7611 15.0719 32.9311 15.0719 33.1578 15.0719C32.6818 15.8879 32.2624 16.7719 31.8998 17.7239C31.5371 18.6759 31.1518 19.5826 30.7438 20.4439C30.4038 21.1466 30.1544 21.7586 29.9958 22.2799C29.8371 22.8013 29.7578 23.2319 29.7578 23.5719C29.7578 24.1839 29.9731 24.4899 30.4038 24.4899C30.7438 24.4899 31.1744 24.2179 31.6958 23.6739C32.2171 23.1073 32.7498 22.4046 33.2937 21.5659C33.8377 20.7273 34.2911 19.8773 34.6537 19.0159C34.9257 18.4266 35.1864 17.8259 35.4358 17.2139C35.7078 16.6019 35.9231 16.0919 36.0818 15.6839C36.1724 15.5253 36.3878 15.4119 36.7278 15.3439C37.0904 15.2533 37.4871 15.1966 37.9177 15.1739C38.3711 15.1513 38.7791 15.1399 39.1418 15.1399C38.8471 15.4119 38.5071 15.8766 38.1217 16.5339C37.7591 17.1686 37.3964 17.8939 37.0338 18.7099C36.6938 19.5259 36.4104 20.3306 36.1838 21.1239C35.9571 21.9173 35.8438 22.5973 35.8438 23.1639C35.8438 23.2546 35.8438 23.3453 35.8438 23.4359C35.8664 23.5266 35.8891 23.6173 35.9118 23.7079C36.0251 24.1159 36.2971 24.3199 36.7278 24.3199C36.8411 24.3199 36.9544 24.3086 37.0678 24.2859C37.2038 24.2633 37.3511 24.2179 37.5098 24.1499C38.1444 23.8779 38.8018 23.4699 39.4818 22.9259C40.1618 22.3819 40.8078 21.7699 41.4198 21.0899C42.0317 20.4099 42.5418 19.7639 42.9498 19.1519C43.1538 18.8573 43.3238 18.7099 43.4598 18.7099C43.5278 18.7099 43.5618 18.7553 43.5618 18.8459C43.5618 19.0273 43.4711 19.2539 43.2898 19.5259C42.8818 20.1379 42.3717 20.8066 41.7598 21.5319C41.1704 22.2573 40.5244 22.9259 39.8218 23.5379C39.1418 24.1499 38.4618 24.6033 37.7817 24.8979C37.2831 25.1019 36.8184 25.2039 36.3878 25.2039C35.5264 25.2039 34.8691 24.8639 34.4158 24.1839C33.9851 23.4813 33.8151 22.7333 33.9058 21.9399C33.3844 22.8239 32.8064 23.5946 32.1718 24.2519C31.5597 24.8866 30.8911 25.2039 30.1657 25.2039Z" fill="white"/>
<path d="M63.5407 18.7099C63.6087 18.7099 63.6427 18.7666 63.6427 18.8799C63.6427 19.0386 63.5521 19.2539 63.3707 19.5259C62.9401 20.2059 62.3961 20.9086 61.7387 21.6339C61.1041 22.3593 60.4354 23.0053 59.7327 23.5719C59.0527 24.1386 58.3954 24.5579 57.7607 24.8299C57.3301 25.0339 56.8654 25.1359 56.3667 25.1359C55.8001 25.1359 55.2901 24.9773 54.8367 24.6599C54.3834 24.3426 54.1567 23.8779 54.1567 23.2659C54.1567 23.1753 54.1567 23.0846 54.1567 22.9939C54.1794 22.9033 54.2021 22.8126 54.2247 22.7219C54.3834 22.0646 54.6441 21.4186 55.0067 20.7839C55.3694 20.1266 55.7547 19.4806 56.1627 18.8459C56.5934 18.1886 56.9447 17.5539 57.2167 16.9419C57.3074 16.7606 57.3527 16.5906 57.3527 16.4319C57.3527 16.1146 57.2054 15.9559 56.9107 15.9559C56.7294 15.9559 56.4914 16.0466 56.1967 16.2279C55.0861 16.8853 54.1227 17.6899 53.3067 18.6419C52.4907 19.5939 51.7767 20.6253 51.1647 21.7359C50.5527 22.8466 49.9974 23.9686 49.4987 25.1019C49.1814 25.1019 48.7507 25.1586 48.2067 25.2719C47.6627 25.3853 47.3001 25.4759 47.1187 25.5439C47.1187 25.5439 47.2207 25.2833 47.4247 24.7619C47.6514 24.2406 47.9234 23.5833 48.2407 22.7899C48.5581 21.9966 48.8754 21.1919 49.1927 20.3759C49.5327 19.5373 49.8274 18.8119 50.0767 18.1999C50.3261 17.5653 50.4734 17.1686 50.5187 17.0099C50.5867 16.7606 50.6207 16.5453 50.6207 16.3639C50.6207 15.9333 50.4394 15.7179 50.0767 15.7179C49.8047 15.7179 49.4421 15.8539 48.9887 16.1259C48.4447 16.4659 47.8894 17.0099 47.3227 17.7579C46.7561 18.5059 46.2007 19.3446 45.6567 20.2739C45.1354 21.2033 44.6594 22.0986 44.2287 22.9599C43.8207 23.8213 43.4921 24.5353 43.2427 25.1019C42.9027 25.1019 42.5061 25.1586 42.0527 25.2719C41.6221 25.3853 41.3047 25.4759 41.1007 25.5439C41.1007 25.5439 41.2934 25.0906 41.6787 24.1839C42.0867 23.2773 42.5967 22.0986 43.2087 20.6479C43.3901 20.2173 43.5487 19.8433 43.6847 19.5259C43.8207 19.2086 43.9341 18.9366 44.0247 18.7099L44.2967 18.0979C44.0021 18.5286 43.7074 18.9593 43.4127 19.3899C43.1181 19.7979 42.8007 20.1946 42.4607 20.5799C42.2567 20.8066 42.0641 20.9199 41.8827 20.9199C41.7921 20.9199 41.7467 20.8746 41.7467 20.7839C41.7467 20.7386 41.8147 20.6366 41.9507 20.4779C42.7441 19.4579 43.4014 18.5173 43.9227 17.6559C44.4441 16.7719 44.8407 16.1146 45.1127 15.6839C45.2941 15.3666 45.5207 15.1966 45.7927 15.1739C46.0874 15.1286 46.3367 15.1059 46.5407 15.1059L47.3567 15.1399C47.2207 15.4346 47.0281 15.8426 46.7787 16.3639C46.5521 16.8626 46.3141 17.4066 46.0647 17.9959C46.4274 17.4973 46.8807 17.0213 47.4247 16.5679C47.9914 16.0919 48.5241 15.7179 49.0227 15.4459C49.5441 15.1739 50.0654 15.0379 50.5867 15.0379C51.1081 15.0379 51.5614 15.1853 51.9467 15.4799C52.3321 15.7519 52.5247 16.1713 52.5247 16.7379C52.5247 16.8059 52.5247 16.8739 52.5247 16.9419C52.5247 17.0099 52.5134 17.0893 52.4907 17.1799C52.4227 17.6106 52.2641 18.0866 52.0147 18.6079C51.7881 19.1293 51.5954 19.5826 51.4367 19.9679C51.7767 19.5373 52.1847 19.0499 52.6607 18.5059C53.1367 17.9619 53.6354 17.4293 54.1567 16.9079C54.7007 16.3866 55.2107 15.9786 55.6867 15.6839C56.3441 15.2759 57.0467 15.0719 57.7947 15.0719C58.2254 15.0719 58.5994 15.1739 58.9167 15.3779C59.2341 15.5593 59.3927 15.8653 59.3927 16.2959C59.3927 16.6359 59.2794 17.0326 59.0527 17.4859C58.6674 18.2793 58.2367 19.0613 57.7607 19.8319C57.3074 20.6026 56.8994 21.3846 56.5367 22.1779C56.2421 22.8579 56.0947 23.3906 56.0947 23.7759C56.0947 24.2293 56.3101 24.4559 56.7407 24.4559C57.3527 24.4559 58.0327 24.1953 58.7807 23.6739C59.5514 23.1299 60.3107 22.4499 61.0587 21.6339C61.8294 20.7953 62.4981 19.9566 63.0647 19.1179C63.2687 18.8459 63.4274 18.7099 63.5407 18.7099Z" fill="white"/>
<path d="M67.477 13.9839C67.137 13.9839 66.8764 13.8706 66.695 13.6439C66.5137 13.4173 66.423 13.1566 66.423 12.8619C66.423 12.5446 66.5364 12.2839 66.763 12.0799C67.0124 11.8759 67.273 11.7739 67.545 11.7739C67.885 11.7739 68.157 11.8873 68.361 12.1139C68.565 12.3179 68.667 12.5673 68.667 12.8619C68.667 13.1566 68.5424 13.4173 68.293 13.6439C68.0437 13.8706 67.7717 13.9839 67.477 13.9839ZM65.845 25.5779C65.0744 25.5779 64.4624 25.2946 64.009 24.7279C63.5557 24.1386 63.329 23.4019 63.329 22.5179C63.329 21.8833 63.4424 21.2373 63.669 20.5799C63.7824 20.2173 63.9184 19.7979 64.077 19.3219C64.2357 18.8233 64.383 18.3926 64.519 18.0299C64.2244 18.4606 63.9184 18.8913 63.601 19.3219C63.3064 19.7526 62.9777 20.1719 62.615 20.5799C62.411 20.8066 62.2184 20.9199 62.037 20.9199C61.9464 20.9199 61.901 20.8746 61.901 20.7839C61.901 20.6933 61.9577 20.5799 62.071 20.4439C62.8644 19.4239 63.5217 18.4833 64.043 17.6219C64.587 16.7606 64.995 16.1146 65.267 15.6839C65.4484 15.3666 65.743 15.1739 66.151 15.1059C66.559 15.0379 66.9104 15.0153 67.205 15.0379C67.2957 15.0379 67.3977 15.0493 67.511 15.0719C67.6244 15.0719 67.7944 15.0719 68.021 15.0719C67.885 15.3439 67.6697 15.8086 67.375 16.4659C67.103 17.1006 66.8197 17.7919 66.525 18.5399C66.2304 19.2653 65.9697 19.9113 65.743 20.4779C65.539 20.9766 65.369 21.4753 65.233 21.9739C65.1197 22.4726 65.063 22.9259 65.063 23.3339C65.063 23.7646 65.1424 24.1159 65.301 24.3879C65.4597 24.6599 65.709 24.7959 66.049 24.7959C66.5024 24.7959 67.0237 24.6146 67.613 24.2519C68.2024 23.8893 68.7917 23.4359 69.381 22.8919C69.993 22.3479 70.5484 21.7926 71.047 21.2259C71.5684 20.6366 71.9764 20.1153 72.271 19.6619C72.3617 19.5259 72.4637 19.4579 72.577 19.4579C72.6904 19.4579 72.747 19.5486 72.747 19.7299C72.747 19.8659 72.7017 19.9906 72.611 20.1039C71.4324 21.7133 70.2877 23.0279 69.177 24.0479C68.089 25.0679 66.9784 25.5779 65.845 25.5779Z" fill="white"/>
<path d="M76.4947 25.2379C75.9281 25.2379 75.4974 25.0679 75.2027 24.7279C74.9081 24.3653 74.7607 23.9006 74.7607 23.3339C74.7607 23.0846 74.7834 22.8126 74.8287 22.5179C74.8967 22.2006 74.9987 21.8946 75.1347 21.5999C75.3841 21.0106 75.6674 20.4553 75.9847 19.9339C76.3247 19.3899 76.6307 18.8006 76.9027 18.1659C77.0614 17.8259 77.1407 17.5199 77.1407 17.2479C77.1407 16.9079 77.0047 16.6813 76.7327 16.5679C76.4607 16.4319 76.1321 16.3526 75.7467 16.3299C75.3614 16.2846 74.9987 16.2279 74.6587 16.1599C74.2961 17.2026 73.8654 18.1319 73.3667 18.9479C72.8907 19.7639 72.2901 20.5799 71.5647 21.3959C71.3154 21.6453 71.1341 21.7699 71.0207 21.7699C70.9301 21.7699 70.8847 21.7246 70.8847 21.6339C70.8847 21.4753 71.0094 21.2599 71.2587 20.9879C71.7574 20.4213 72.1994 19.8206 72.5847 19.1859C72.9927 18.5286 73.3214 17.9166 73.5707 17.3499C73.8427 16.7833 74.0127 16.3639 74.0807 16.0919C73.5821 15.8879 73.1854 15.5026 72.8907 14.9359C72.5961 14.3466 72.4487 13.7686 72.4487 13.2019C72.4487 12.5219 72.6187 11.9666 72.9587 11.5359C73.2987 11.0826 73.6501 10.8559 74.0127 10.8559C74.3301 10.8559 74.6134 11.0373 74.8627 11.3999C75.1121 11.7626 75.2367 12.3746 75.2367 13.2359C75.2367 13.5986 75.1914 13.9726 75.1007 14.3579C75.0101 14.7206 74.9307 15.0266 74.8627 15.2759C75.1347 15.3213 75.4521 15.3553 75.8147 15.3779C76.1774 15.3779 76.4834 15.3893 76.7327 15.4119C77.0274 15.4119 77.3107 15.4233 77.5827 15.4459C77.8774 15.4686 78.1381 15.5139 78.3647 15.5819C78.9767 15.7633 79.2827 16.1373 79.2827 16.7039C79.2827 17.2026 79.0901 17.8259 78.7047 18.5739C78.4101 19.2086 78.0814 19.8433 77.7187 20.4779C77.3561 21.1126 77.0501 21.7586 76.8007 22.4159C76.7101 22.6426 76.6307 22.8806 76.5627 23.1299C76.5174 23.3566 76.4947 23.5606 76.4947 23.7419C76.4947 24.1953 76.6987 24.4219 77.1067 24.4219C77.3334 24.4219 77.6281 24.3539 77.9907 24.2179C78.6254 23.9459 79.2827 23.5153 79.9627 22.9259C80.6654 22.3366 81.3227 21.6906 81.9347 20.9879C82.5467 20.2853 83.0454 19.6393 83.4307 19.0499C83.6347 18.7553 83.8161 18.6079 83.9747 18.6079C84.0654 18.6079 84.1107 18.6646 84.1107 18.7779C84.1107 18.9366 84.0201 19.1406 83.8387 19.3899C83.4534 20.0019 82.9321 20.6819 82.2747 21.4299C81.6401 22.1553 80.9601 22.8353 80.2347 23.4699C79.5094 24.0819 78.8067 24.5353 78.1267 24.8299C77.4921 25.1019 76.9481 25.2379 76.4947 25.2379ZM74.2847 15.1739C74.3074 15.0833 74.3187 14.9246 74.3187 14.6979C74.3187 14.5166 74.3074 14.3239 74.2847 14.1199C74.2847 13.8933 74.2847 13.6666 74.2847 13.4399C74.2847 12.4879 74.1601 12.0346 73.9107 12.0799C73.8201 12.1026 73.7407 12.2159 73.6727 12.4199C73.6047 12.6239 73.5707 12.8619 73.5707 13.1339C73.5707 13.5193 73.6274 13.9159 73.7407 14.3239C73.8767 14.7319 74.0581 15.0153 74.2847 15.1739Z" fill="white"/>
<path d="M86.0625 25.2719C85.2692 25.3173 84.6232 25.1813 84.1245 24.8639C83.6486 24.5239 83.2972 24.0819 83.0705 23.5379C82.8665 22.9713 82.7645 22.3819 82.7645 21.7699C82.7645 21.4299 82.7985 21.0899 82.8665 20.7499C82.9345 20.4099 83.0139 20.0926 83.1045 19.7979C83.3539 19.0726 83.6939 18.4039 84.1245 17.7919C84.5552 17.1799 85.0199 16.6586 85.5185 16.2279C85.9945 15.8199 86.5159 15.5026 87.0826 15.2759C87.6719 15.0266 88.2159 14.9019 88.7145 14.9019C89.2132 14.9019 89.6326 15.0379 89.9725 15.3099C90.3125 15.5593 90.4825 15.9786 90.4825 16.5679C90.4825 16.8853 90.4146 17.2819 90.2785 17.7579C90.0292 18.5513 89.4966 19.2539 88.6805 19.8659C87.8872 20.4779 87.0259 20.7839 86.0965 20.7839C85.8245 20.7839 85.5299 20.7499 85.2125 20.6819C85.0539 21.2486 84.9745 21.8266 84.9745 22.4159C84.9745 23.0279 85.0992 23.5379 85.3485 23.9459C85.6206 24.3313 86.0512 24.5239 86.6405 24.5239C87.3205 24.5239 88.0685 24.2973 88.8845 23.8439C89.7005 23.3679 90.5165 22.7333 91.3326 21.9399C92.1712 21.1466 92.9305 20.2399 93.6105 19.2199C93.7012 19.0613 93.8032 18.9819 93.9165 18.9819C94.0299 18.9819 94.0865 19.0726 94.0865 19.2539C94.0865 19.4353 94.0299 19.5939 93.9165 19.7299C93.3046 20.5686 92.6019 21.4073 91.8085 22.2459C91.0152 23.0619 90.1425 23.7533 89.1905 24.3199C88.2385 24.8866 87.1959 25.2039 86.0625 25.2719ZM85.8585 20.2059C86.2439 20.2059 86.6632 20.0586 87.1165 19.7639C87.5699 19.4693 87.9892 19.1179 88.3745 18.7099C88.7825 18.3019 89.0659 17.9279 89.2245 17.5879C89.4739 17.0893 89.5985 16.6699 89.5985 16.3299C89.5985 16.0126 89.5079 15.7973 89.3265 15.6839C89.1679 15.5706 89.0432 15.5139 88.9525 15.5139C88.7259 15.5139 88.4085 15.6386 88.0005 15.8879C87.6152 16.1373 87.2299 16.5339 86.8445 17.0779C86.4819 17.5539 86.1646 18.0639 85.8925 18.6079C85.6205 19.1519 85.4505 19.6506 85.3825 20.1039C85.5185 20.1719 85.6772 20.2059 85.8585 20.2059Z" fill="white"/>
<path d="M95.4383 25.5779C94.7356 25.5779 94.1236 25.3739 93.6023 24.9659C93.081 24.5579 92.8203 23.9006 92.8203 22.9939C92.8203 22.3819 92.9563 21.5773 93.2283 20.5799C93.5003 19.5826 93.9536 18.3359 94.5883 16.8399C95.2683 15.1853 96.039 13.5419 96.9003 11.9099C97.7617 10.2553 98.725 8.74792 99.7903 7.38792C100.221 6.84392 100.708 6.43592 101.252 6.16392C101.796 5.86926 102.295 5.72192 102.748 5.72192C103.179 5.72192 103.53 5.83526 103.802 6.06192C104.074 6.28859 104.21 6.63992 104.21 7.11592C104.21 7.36526 104.154 7.67126 104.04 8.03392C103.927 8.37392 103.746 8.77059 103.496 9.22392C102.952 10.1986 102.102 11.3886 100.946 12.7939C99.813 14.1766 98.2036 15.7746 96.1183 17.5879C95.7556 18.5173 95.393 19.3899 95.0303 20.2059C94.6903 20.9993 94.475 21.7019 94.3843 22.3139C94.3616 22.4273 94.339 22.5406 94.3163 22.6539C94.3163 22.7673 94.3163 22.8806 94.3163 22.9939C94.3163 23.6286 94.4636 24.0819 94.7583 24.3539C95.0757 24.6033 95.4496 24.7279 95.8803 24.7279C96.2656 24.7279 96.6736 24.6373 97.1043 24.4559C97.5576 24.2746 97.9543 24.0593 98.2943 23.8099C99.0196 23.2659 99.7336 22.5859 100.436 21.7699C101.162 20.9313 101.819 20.0813 102.408 19.2199C102.476 19.1066 102.556 19.0499 102.646 19.0499C102.782 19.0499 102.85 19.1406 102.85 19.3219C102.85 19.4126 102.816 19.5146 102.748 19.6279C102.114 20.6026 101.411 21.5206 100.64 22.3819C99.8923 23.2433 99.1217 23.9799 98.3283 24.5919C97.9203 24.9093 97.4556 25.1473 96.9343 25.3059C96.4356 25.4873 95.937 25.5779 95.4383 25.5779ZM96.7303 16.0919C98.045 14.9586 99.1556 13.8593 100.062 12.7939C100.969 11.7059 101.717 10.6746 102.306 9.69992C102.692 9.08792 102.952 8.57792 103.088 8.16992C103.247 7.76192 103.326 7.45592 103.326 7.25192C103.326 7.00259 103.236 6.87792 103.054 6.87792C102.624 6.87792 102.023 7.39926 101.252 8.44192C100.346 9.71126 99.5296 10.9579 98.8043 12.1819C98.1016 13.3833 97.4103 14.6866 96.7303 16.0919Z" fill="white"/>
<path d="M104.204 25.5779C103.501 25.5779 102.889 25.3739 102.368 24.9659C101.847 24.5579 101.586 23.9006 101.586 22.9939C101.586 22.3819 101.722 21.5773 101.994 20.5799C102.266 19.5826 102.719 18.3359 103.354 16.8399C104.034 15.1853 104.805 13.5419 105.666 11.9099C106.527 10.2553 107.491 8.74792 108.556 7.38792C108.987 6.84392 109.474 6.43592 110.018 6.16392C110.562 5.86926 111.061 5.72192 111.514 5.72192C111.945 5.72192 112.296 5.83526 112.568 6.06192C112.84 6.28859 112.976 6.63992 112.976 7.11592C112.976 7.36526 112.919 7.67126 112.806 8.03392C112.693 8.37392 112.511 8.77059 112.262 9.22392C111.718 10.1986 110.868 11.3886 109.712 12.7939C108.579 14.1766 106.969 15.7746 104.884 17.5879C104.521 18.5173 104.159 19.3899 103.796 20.2059C103.456 20.9993 103.241 21.7019 103.15 22.3139C103.127 22.4273 103.105 22.5406 103.082 22.6539C103.082 22.7673 103.082 22.8806 103.082 22.9939C103.082 23.6286 103.229 24.0819 103.524 24.3539C103.841 24.6033 104.215 24.7279 104.646 24.7279C105.031 24.7279 105.439 24.6373 105.87 24.4559C106.323 24.2746 106.72 24.0593 107.06 23.8099C107.785 23.2659 108.499 22.5859 109.202 21.7699C109.927 20.9313 110.585 20.0813 111.174 19.2199C111.242 19.1066 111.321 19.0499 111.412 19.0499C111.548 19.0499 111.616 19.1406 111.616 19.3219C111.616 19.4126 111.582 19.5146 111.514 19.6279C110.879 20.6026 110.177 21.5206 109.406 22.3819C108.658 23.2433 107.887 23.9799 107.094 24.5919C106.686 24.9093 106.221 25.1473 105.7 25.3059C105.201 25.4873 104.703 25.5779 104.204 25.5779ZM105.496 16.0919C106.811 14.9586 107.921 13.8593 108.828 12.7939C109.735 11.7059 110.483 10.6746 111.072 9.69992C111.457 9.08792 111.718 8.57792 111.854 8.16992C112.013 7.76192 112.092 7.45592 112.092 7.25192C112.092 7.00259 112.001 6.87792 111.82 6.87792C111.389 6.87792 110.789 7.39926 110.018 8.44192C109.111 9.71126 108.295 10.9579 107.57 12.1819C106.867 13.3833 106.176 14.6866 105.496 16.0919Z" fill="white"/>
<path d="M113.854 25.2719C113.06 25.3173 112.414 25.1813 111.916 24.8639C111.44 24.5239 111.088 24.0819 110.862 23.5379C110.658 22.9713 110.556 22.3819 110.556 21.7699C110.556 21.4299 110.59 21.0899 110.658 20.7499C110.726 20.4099 110.805 20.0926 110.896 19.7979C111.145 19.0726 111.485 18.4039 111.916 17.7919C112.346 17.1799 112.811 16.6586 113.31 16.2279C113.786 15.8199 114.307 15.5026 114.874 15.2759C115.463 15.0266 116.007 14.9019 116.506 14.9019C117.004 14.9019 117.424 15.0379 117.764 15.3099C118.104 15.5593 118.274 15.9786 118.274 16.5679C118.274 16.8853 118.206 17.2819 118.07 17.7579C117.82 18.5513 117.288 19.2539 116.472 19.8659C115.678 20.4779 114.817 20.7839 113.888 20.7839C113.616 20.7839 113.321 20.7499 113.004 20.6819C112.845 21.2486 112.766 21.8266 112.766 22.4159C112.766 23.0279 112.89 23.5379 113.14 23.9459C113.412 24.3313 113.842 24.5239 114.432 24.5239C115.112 24.5239 115.86 24.2973 116.676 23.8439C117.492 23.3679 118.308 22.7333 119.124 21.9399C119.962 21.1466 120.722 20.2399 121.402 19.2199C121.492 19.0613 121.594 18.9819 121.708 18.9819C121.821 18.9819 121.878 19.0726 121.878 19.2539C121.878 19.4353 121.821 19.5939 121.708 19.7299C121.096 20.5686 120.393 21.4073 119.6 22.2459C118.806 23.0619 117.934 23.7533 116.982 24.3199C116.03 24.8866 114.987 25.2039 113.854 25.2719ZM113.65 20.2059C114.035 20.2059 114.454 20.0586 114.908 19.7639C115.361 19.4693 115.78 19.1179 116.166 18.7099C116.574 18.3019 116.857 17.9279 117.016 17.5879C117.265 17.0893 117.39 16.6699 117.39 16.3299C117.39 16.0126 117.299 15.7973 117.118 15.6839C116.959 15.5706 116.834 15.5139 116.744 15.5139C116.517 15.5139 116.2 15.6386 115.792 15.8879C115.406 16.1373 115.021 16.5339 114.636 17.0779C114.273 17.5539 113.956 18.0639 113.684 18.6079C113.412 19.1519 113.242 19.6506 113.174 20.1039C113.31 20.1719 113.468 20.2059 113.65 20.2059Z" fill="white"/>
<path d="M36.2031 41.3279H32.6562L31.9219 43.9373H30.875L34.1562 32.7342H34.6875L37.9844 43.9373H36.9453L36.2031 41.3279ZM32.9297 40.367H35.9375L34.4609 35.2029L34.4297 34.7889L34.3984 35.2029L32.9297 40.367Z" fill="white"/>
<path d="M49.0825 41.3436C49.0825 41.7238 49.0096 42.0805 48.8638 42.4139C48.7231 42.7472 48.5278 43.0389 48.2778 43.2889C48.0278 43.5389 47.7361 43.7368 47.4028 43.8826C47.0695 44.0232 46.7127 44.0936 46.3325 44.0936H45.5356C45.1554 44.0936 44.796 44.0232 44.4575 43.8826C44.1242 43.7368 43.8325 43.5389 43.5825 43.2889C43.3325 43.0389 43.1346 42.7472 42.9888 42.4139C42.8481 42.0805 42.7778 41.7238 42.7778 41.3436V35.3279C42.7778 34.9477 42.8481 34.5909 42.9888 34.2576C43.1346 33.9243 43.3325 33.6326 43.5825 33.3826C43.8325 33.1326 44.1242 32.9373 44.4575 32.7967C44.796 32.6508 45.1554 32.5779 45.5356 32.5779H46.3325C46.7127 32.5779 47.0695 32.6508 47.4028 32.7967C47.7361 32.9373 48.0278 33.1326 48.2778 33.3826C48.5278 33.6326 48.7231 33.9243 48.8638 34.2576C49.0096 34.5909 49.0825 34.9477 49.0825 35.3279V35.7811L48.0747 35.9373V35.3279C48.0747 35.0779 48.0278 34.8462 47.9341 34.6326C47.8403 34.4139 47.7127 34.2238 47.5513 34.0623C47.3898 33.9008 47.1997 33.7732 46.9809 33.6795C46.7674 33.5857 46.5356 33.5389 46.2856 33.5389H45.5825C45.3325 33.5389 45.0981 33.5857 44.8794 33.6795C44.6658 33.7732 44.4757 33.9008 44.3091 34.0623C44.1476 34.2238 44.02 34.4139 43.9263 34.6326C43.8325 34.8462 43.7856 35.0779 43.7856 35.3279V41.3436C43.7856 41.5936 43.8325 41.8279 43.9263 42.0467C44.02 42.2602 44.1476 42.4503 44.3091 42.617C44.4757 42.7784 44.6658 42.9061 44.8794 42.9998C45.0981 43.0936 45.3325 43.1404 45.5825 43.1404H46.2856C46.5356 43.1404 46.7674 43.0936 46.9809 42.9998C47.1997 42.9061 47.3898 42.7784 47.5513 42.617C47.7127 42.4503 47.8403 42.2602 47.9341 42.0467C48.0278 41.8279 48.0747 41.5936 48.0747 41.3436V40.7342L49.0825 40.8982V41.3436Z" fill="white"/>
<path d="M59.0556 41.3279H55.5088L54.7744 43.9373H53.7275L57.0088 32.7342H57.54L60.8369 43.9373H59.7978L59.0556 41.3279ZM55.7822 40.367H58.79L57.3134 35.2029L57.2822 34.7889L57.2509 35.2029L55.7822 40.367Z" fill="white"/>
<path d="M72.0991 41.1873C72.0991 41.5675 72.0261 41.9243 71.8803 42.2576C71.7397 42.5909 71.5444 42.8826 71.2944 43.1326C71.0444 43.3826 70.7501 43.5805 70.4116 43.7264C70.0782 43.867 69.7215 43.9373 69.3413 43.9373H65.7944V32.7342H69.3413C69.7215 32.7342 70.0782 32.8071 70.4116 32.9529C70.7501 33.0936 71.0444 33.2889 71.2944 33.5389C71.5444 33.7889 71.7397 34.0831 71.8803 34.4217C72.0261 34.755 72.0991 35.1118 72.0991 35.492V41.1873ZM71.0913 35.492C71.0913 35.242 71.0444 35.0102 70.9506 34.7967C70.8569 34.5779 70.7267 34.3878 70.56 34.2264C70.3985 34.0597 70.2084 33.9295 69.9897 33.8357C69.7761 33.742 69.5444 33.6951 69.2944 33.6951H66.8022V42.9764H69.2944C69.5444 42.9764 69.7761 42.9295 69.9897 42.8357C70.2084 42.742 70.3985 42.6144 70.56 42.4529C70.7267 42.2915 70.8569 42.104 70.9506 41.8904C71.0444 41.6717 71.0913 41.4373 71.0913 41.1873V35.492Z" fill="white"/>
<path d="M78.0175 43.9373V32.7342H84.3222V33.6951H79.0253V37.8592H83.3144V38.8201H79.0253V42.9764H84.3222V43.9373H78.0175Z" fill="white"/>
<path d="M96.6703 43.9373V36.2576L96.6 36.7342L93.9984 43.9373H93.4672L90.8422 36.7342L90.7797 36.2576V43.9373H89.7719V32.7342H90.2953L93.6937 41.9217L93.725 42.3357L93.7562 41.9217L97.1469 32.7342H97.6781V43.9373H96.6703Z" fill="white"/>
<path d="M106.706 38.5779V43.9373H105.698V38.5936L102.8 32.7342H103.886L106.19 37.3904L108.495 32.7342H109.581L106.706 38.5779Z" fill="white"/>
</svg>
